<?xml version="1.0" encoding="utf-8"?>
<!-- Generator: Adobe Illustrator 22.0.1, SVG Export Plug-In . SVG Version: 6.00 Build 0)  -->
<svg version="1.1" id="レイヤー_1" xmlns="http://www.w3.org/2000/svg" xmlns:xlink="http://www.w3.org/1999/xlink" x="0px"
	 y="0px" width="714.3px" height="314.9px" viewBox="0 0 714.3 314.9" style="enable-background:new 0 0 714.3 314.9;"
	 xml:space="preserve">
<style type="text/css">
	.st0{fill-rule:evenodd;clip-rule:evenodd;fill:#FFC3D1;}
</style>
<path class="st0" d="M59.5,313.6c-0.1,0-0.1,0-0.2-0.1c0-0.3,0-0.4-0.2-0.5c-0.2,0.2,0,0.1-0.3,0.1c0,0,0-0.1-0.1-0.1
	c0.1-0.4,0-0.4,0-0.7c0.2,0.1,0,0.1,0.2,0.1c0-0.7,0.7-1.4,1.1-1.9c0.5-0.8,0.9-1.5,1.4-2.2c0.6-0.7,1.4-1.5,1.9-2.5
	c-0.2-0.4-0.4-0.8-0.6-1.2c-0.5-0.6-1-1.2-1.4-1.9c-0.2-0.3-0.7-0.8-0.5-1.1c0.4-0.5,3-0.9,3.8-1.1c1.1-0.3,2.3-0.8,3.4-0.9
	c0.2,0,0.4,0,0.5,0.1c0.6-0.1,1.3-0.6,2-0.5c0.5,0.1,2.5,1.6,2.9,1.9c1,0.7,2,1.1,3,1.8c1.2,0.8,2.5,1.9,3.9,2.5
	c-0.2,0.9-0.7,1.2-1.1,1.7c-0.8,1-1.3,2-2.1,3c-0.1,0.2-0.5,0.4-0.6,0.5c-0.5,0.6-0.5,1.3-1.2,1.6c-1.6,0.7-3.4,0.8-5.1,1.3
	c-0.4,0.1-1.4,0.5-1.8,0.7c-0.2,0.1-0.4,0.4-0.5,0.5c-0.3,0.1-0.4-0.2-0.7-0.1c-0.2,0.1-0.3,0.2-0.5,0.3c-1.4,0.2-4.6-1.2-5.4-1.4
	c0,0,0,0,0,0.1c0.2,0.1,0.2,0.1,0.3,0.2c-0.8-0.1-1.4-0.1-2-0.5C59.6,313.3,59.6,313.5,59.5,313.6z"/>
<path class="st0" d="M0.1,7.6C0.1,7.5,0,7.4,0,7.3c0.4-0.2,0.5-0.4,0.5-0.6C0.2,6.6,0.4,6.7,0.2,6.4c0,0,0-0.1,0.1-0.1
	C0.8,6.1,0.7,6,1.2,5.8C1.2,6,1.1,5.8,1.3,6.1c0.8-0.6,2.2-0.2,3.2-0.2c1.3,0,2.5-0.1,3.8,0c1.4,0.1,2.9,0.6,4.4,0.4
	c0.3-0.6,0.6-1.1,0.9-1.7c0.4-1.1,0.7-2.2,1.2-3.2C15.1,1,15.3,0,15.8,0c1,0.1,3.4,3,4.3,3.7c1.2,1,2.7,2.1,3.7,3.4
	c0.1,0.2,0.2,0.5,0.3,0.7c0.6,0.6,1.7,1.2,2.1,2c0.3,0.6,0,4.2,0,4.9c-0.1,1.7,0.2,3.3,0.2,5.1c-0.1,2.1-0.4,4.5-0.1,6.7
	c-1.3,0.4-2,0.1-2.9,0c-1.8-0.2-3.4-0.1-5.2-0.3c-0.3,0-0.8-0.3-1.2-0.3c-1.1-0.1-2.1,0.4-2.9-0.2c-2-1.4-3.6-3.5-5.5-5.1
	C8.2,20.3,7,19.3,6.4,19c-0.2-0.1-0.8-0.1-1-0.3C5,18.4,5.2,18.1,5,17.8c-0.2-0.1-0.5-0.2-0.7-0.4C3,15.9,2.2,11,1.7,9.8
	c0,0-0.1,0-0.1,0c0.1,0.3,0.1,0.3,0,0.5c-0.5-1.1-0.9-1.8-1-2.9C0.5,7.5,0.3,7.6,0.1,7.6z"/>
<path class="st0" d="M713.9,215.6c0.1,0.1,0.1,0.1,0.2,0.2c-0.1,0.3-0.2,0.4-0.1,0.6c0.2-0.1,0-0.1,0.3,0c0,0,0,0.1,0,0.1
	c-0.2,0.3-0.1,0.3-0.4,0.6c-0.1-0.1,0-0.1-0.2-0.2c-0.3,0.6-1.2,0.9-1.9,1.2c-0.8,0.5-1.4,0.9-2.2,1.3c-0.9,0.4-2,0.7-2.8,1.3
	c0,0.4,0,0.9,0.1,1.3c0.1,0.8,0.3,1.5,0.4,2.3c0,0.3,0.2,1,0,1.2c-0.6,0.3-3.1-0.6-3.9-0.7c-1.1-0.2-2.3-0.3-3.4-0.7
	c-0.2-0.1-0.3-0.2-0.5-0.3c-0.6-0.2-1.4-0.1-2-0.5c-0.4-0.3-1.5-2.5-1.7-2.9c-0.5-1.1-1.3-1.9-1.9-3c-0.7-1.3-1.4-2.8-2.3-4
	c0.6-0.7,1.2-0.7,1.8-1c1.2-0.5,2.1-1.2,3.2-1.7c0.2-0.1,0.6-0.1,0.8-0.2c0.7-0.3,1.1-1,1.8-0.9c1.7,0.1,3.4,0.8,5.1,1.1
	c0.4,0.1,1.5,0.2,1.9,0.2c0.2,0,0.5-0.2,0.7-0.2c0.4,0.1,0.3,0.3,0.6,0.4c0.2,0,0.4,0,0.5,0c1.3,0.5,3.5,3.1,4.2,3.6c0,0,0,0,0-0.1
	c-0.1-0.1-0.2-0.2-0.2-0.3c0.7,0.5,1.2,0.7,1.6,1.4C713.7,215.8,713.8,215.7,713.9,215.6z"/>
</svg>
