<?xml version="1.0" encoding="utf-8"?>
<!-- Generator: Adobe Illustrator 22.0.1, SVG Export Plug-In . SVG Version: 6.00 Build 0)  -->
<svg version="1.1" id="レイヤー_1" xmlns="http://www.w3.org/2000/svg" xmlns:xlink="http://www.w3.org/1999/xlink" x="0px"
	 y="0px" width="36.9px" height="212.8px" viewBox="0 0 36.9 212.8" style="enable-background:new 0 0 36.9 212.8;"
	 xml:space="preserve">
<style type="text/css">
	.st0{fill:#FFC3D1;}
	.st1{fill-rule:evenodd;clip-rule:evenodd;fill:#282828;}
</style>
<g>
	<g>
		<g>
			<path class="st0" d="M18.5,11.6c-0.4,0-0.3,0.4-0.3,0.4s0,3.4,0,3.6c0,0.1-0.1,0.1-0.2,0.1c-0.4,0-0.8,0.2-0.9,0.3
				c-0.2,0.1-0.3,0-0.3,0s-2.3-3.1-4.1-5.5c-0.4-0.5-0.7-1.1-0.9-1.6c-0.2-0.6-0.2-0.8-0.2-1.1C11,3.6,15.4,1.3,16,1
				c0.6-0.4,0.9-1,1.3-1c0.1,0,0.2,0.1,0.3,0.2c0.3,0.3,0.6,1,0.8,1c0.3,0,0.6-0.6,0.8-1C19.4,0.1,19.5,0,19.6,0
				c0.5,0,0.7,0.6,1.3,1c0.6,0.4,5,2.7,4.4,6.8c0,0.3,0,0.5-0.2,1.1c-0.2,0.5-0.5,1.1-0.9,1.6c-1.8,2.5-4.1,5.5-4.1,5.5
				s-0.1,0.1-0.3,0c-0.1-0.1-0.5-0.2-0.9-0.3c-0.1,0-0.2-0.1-0.2-0.1c0-0.2,0-3.6,0-3.6S18.8,11.6,18.5,11.6z"/>
			<path class="st0" d="M25.5,16.7c-0.1-0.3-0.4-0.2-0.4-0.2s-3.2,1.1-3.4,1.1c-0.1,0-0.2,0-0.2-0.1c-0.2-0.4-0.4-0.7-0.5-0.8
				c-0.2-0.2-0.1-0.3-0.1-0.3s2.2-3.2,4-5.6c0.4-0.5,0.8-1,1.2-1.3c0.5-0.4,0.7-0.4,1-0.5c3.7-1.9,7.3,1.6,7.8,2.1
				c0.6,0.5,1.2,0.5,1.3,1c0,0.1,0,0.2-0.1,0.4c-0.2,0.4-0.7,0.9-0.7,1.1c0.1,0.2,0.8,0.3,1.2,0.5c0.2,0.1,0.3,0.1,0.3,0.2
				c0.1,0.4-0.3,0.8-0.5,1.6c-0.2,0.7-1,5.6-5.1,6.3c-0.3,0-0.5,0.1-1.1,0.1c-0.5,0-1.2-0.1-1.8-0.3c-3-1-6.5-2.2-6.5-2.2
				s-0.2,0-0.1-0.3c0-0.1,0.1-0.5,0-0.9c0-0.1,0-0.2,0.1-0.2c0.2-0.1,3.4-1.1,3.4-1.1S25.6,17.1,25.5,16.7z"/>
			<path class="st0" d="M22.8,25c0.3-0.2,0.1-0.5,0.1-0.5s-2-2.8-2.1-2.9c0,0,0-0.2,0-0.2c0.3-0.3,0.5-0.6,0.6-0.7
				c0.1-0.2,0.3-0.2,0.3-0.2s3.7,1.1,6.6,2.1c0.6,0.2,1.2,0.5,1.6,0.8c0.5,0.4,0.6,0.5,0.8,0.8c2.9,2.9,0.7,7.4,0.4,8.1
				c-0.3,0.7-0.1,1.3-0.5,1.5c-0.1,0.1-0.2,0-0.4,0c-0.4-0.1-1-0.4-1.2-0.3c-0.2,0.1-0.1,0.8-0.1,1.3c0,0.2,0,0.3-0.1,0.4
				c-0.4,0.3-0.9-0.1-1.6,0c-0.7,0.1-5.6,0.8-7.5-2.9c-0.1-0.3-0.3-0.4-0.5-1c-0.2-0.5-0.2-1.2-0.2-1.8c0-3.1,0-6.9,0-6.9
				s0-0.2,0.2-0.2c0.1,0,0.5-0.1,0.9-0.3c0.1,0,0.2,0,0.2,0c0.1,0.2,2.1,2.9,2.1,2.9S22.5,25.2,22.8,25z"/>
			<path class="st0" d="M14.1,25c0.3,0.2,0.5-0.1,0.5-0.1s2-2.7,2.1-2.9c0,0,0.1-0.1,0.2,0c0.4,0.2,0.8,0.3,0.9,0.3
				c0.3,0.1,0.2,0.2,0.2,0.2s0.1,3.9,0,6.9c0,0.6-0.1,1.3-0.2,1.8c-0.2,0.6-0.3,0.7-0.5,1c-1.9,3.7-6.8,3-7.5,2.9
				c-0.7-0.1-1.3,0.3-1.6,0c-0.1-0.1-0.1-0.2-0.1-0.4c0-0.4,0.1-1.1-0.1-1.3c-0.2-0.1-0.8,0.2-1.2,0.3c-0.2,0-0.3,0.1-0.4,0
				c-0.4-0.3-0.2-0.9-0.5-1.5c-0.3-0.7-2.5-5.1,0.4-8.1c0.2-0.2,0.3-0.4,0.8-0.8c0.4-0.3,1-0.6,1.6-0.8c3-1,6.6-2.1,6.6-2.1
				s0.1-0.1,0.3,0.2c0.1,0.1,0.3,0.5,0.6,0.7c0.1,0.1,0.1,0.2,0,0.2c-0.1,0.2-2.1,2.9-2.1,2.9S13.8,24.8,14.1,25z"/>
			<path class="st0" d="M11.4,16.7c-0.1,0.4,0.2,0.4,0.2,0.4s3.2,1,3.4,1.1c0.1,0,0.1,0.1,0.1,0.2c-0.1,0.4,0,0.8,0,0.9
				c0,0.3-0.1,0.3-0.1,0.3s-3.7,1.3-6.5,2.2c-0.6,0.2-1.3,0.3-1.8,0.3c-0.6,0-0.8-0.1-1.1-0.1c-4.1-0.6-4.9-5.6-5.1-6.3
				c-0.2-0.7-0.6-1.1-0.5-1.6c0-0.1,0.2-0.2,0.3-0.2c0.4-0.2,1.1-0.3,1.2-0.5c0.1-0.2-0.4-0.7-0.6-1.1c-0.1-0.2-0.2-0.3-0.1-0.4
				c0.1-0.5,0.8-0.5,1.3-1c0.5-0.5,4.1-4,7.8-2.1c0.3,0.1,0.5,0.2,1,0.5c0.4,0.3,0.9,0.8,1.2,1.3c1.8,2.5,4,5.6,4,5.6
				s0.1,0.1-0.1,0.3c-0.1,0.1-0.4,0.4-0.5,0.8c0,0.1-0.1,0.1-0.2,0.1c-0.2-0.1-3.4-1.1-3.4-1.1S11.5,16.4,11.4,16.7z"/>
			<path class="st0" d="M15.8,19c0,1.5,1.2,2.7,2.6,2.7c1.5,0,2.6-1.2,2.6-2.7c0-1.5-1.2-2.7-2.6-2.7C17,16.3,15.8,17.5,15.8,19z"/>
		</g>
	</g>
	<g>
		<g>
			<path class="st1" d="M21.9,60.1v0.1c-0.3,0.1-0.7,0.3-0.7,0.7c-0.1,0.1,0,0.3-0.1,0.5H21c0,0.2,0,0.4-0.1,0.6h-0.1v0.2h-0.1v0.1
				h-0.1v0.2h-0.1v0.1c-0.1,0.1-0.2,0.3-0.3,0.4h-0.1c0,0,0,0.1-0.1,0.1h-0.1c0,0,0,0.1-0.1,0.1h-0.1v0.1c-0.1,0-0.3,0-0.4,0.1v0.1
				h-0.1v0.1c-0.1,0-0.3,0-0.4,0.1c-0.2,0.1-0.5,0.4-0.7,0.3c-0.3-0.1-0.2-0.2-0.3-0.4H18v-0.1c-0.1,0-0.1-0.1-0.2-0.1
				c0,0,0-0.1-0.1-0.1h-0.3c-0.1,0.1-0.4,0-0.5,0.1c0,0,0,0.1-0.1,0.1c-0.1,0-0.2,0-0.3,0.1c-0.1,0.1-0.3,0.3-0.4,0.4h-0.1v0.1
				C16.2,64,16.1,64,16,64.1v0.1h-0.1c-0.2,0.3-0.6,0.4-0.7,0.8c0.1,0.1,0.3,0.2,0.5,0.3h0.8v-0.1h0.2v-0.1c0.1,0,0.1,0,0.2,0.1
				v-0.1H17v-0.1h0.5v-0.1h0.4V65H18V65h0.2v-0.1c0.2,0,0.4,0,0.7-0.1v-0.1c0.1,0,0.1,0,0.2-0.1v-0.1c0.2,0,0.4,0,0.6-0.1
				c0.2-0.1,0.6-0.2,0.8-0.3c0.2,0,0.5-0.1,0.7-0.1v-0.1c0.1,0,0.2-0.1,0.3-0.1v-0.1H22V64h0.2v-0.1c0.1,0,0.1,0,0.2-0.1
				c0-0.1,0.1-0.3,0.1-0.4c0-0.3,0-0.6-0.1-0.9h0.1v0.1c0.1,0.1,0,0.1,0.1,0.3h0.1v0.1h0.1l0.1,0.3c0.2,0,0.2,0.1,0.3,0.2v0.1h0.3
				v0.1H24v0.1c0.1,0,0.1,0,0.2,0.1v0.1h0.2v0.1h0.1v0.1h0.2c0,0,0,0.1,0.1,0.1c0.2,0.1,0.2,0.1,0.3,0.3h0.1v0.4
				c-0.1,0.1-0.2,0.2-0.3,0.2c-0.1,0-0.2,0-0.3,0.1V65c-0.1,0-0.3,0-0.4,0.1v0.1c-0.1,0-0.1,0-0.2,0.1v0.1h-0.2v0.1
				c-0.3,0-0.7,0.1-1,0.1c-0.3,0.1-0.8,0.2-1.2,0.3H21v0.1h-0.2v0.1c-0.1,0-0.3,0-0.4,0.1v0.1h-0.5V66h-0.3V66c-0.2,0-0.4,0-0.7,0.1
				v0.1h-0.4v0.1h-0.2v0.1h-0.2v0.1h-0.2v0.1c-0.3,0-0.5,0-0.8,0.1v0.1c-0.1,0-0.1,0-0.2,0.1v-0.1h-0.3v-0.1h-0.1v0.1h-0.1v0.1H16
				h-1.3c-0.2-0.1-0.4-0.2-0.7-0.3c0-0.1,0-0.1-0.1-0.2c-0.1,0-0.1-0.1-0.2-0.1v-0.2h-0.1v-0.1h0.1c0-0.1,0-0.3,0.1-0.4h0.1
				c0-0.2,0.1-0.3,0.1-0.5h0.1l0.1-0.1h0.1c0,0,0-0.1,0.1-0.1h0.1c0,0,0-0.1,0.1-0.1c0.1-0.1,0.3-0.2,0.4-0.3
				c0.1-0.2,0.2-0.3,0.3-0.4l0.3-0.3h0.1c0.1-0.1,0.1-0.1,0.2-0.2h0.1c0.2-0.2,0.4-0.4,0.6-0.7v-0.1c0.1,0,0.1-0.1,0.2-0.1v-0.3
				c-0.1-0.1-0.2-0.3-0.3-0.4c-0.1-0.1-0.1-0.1-0.2-0.2v-0.1c0,0-0.1,0-0.1-0.1v-0.1c-0.1-0.1-0.1-0.1-0.2-0.2v-0.1
				c0,0-0.1,0-0.1-0.1v-0.2h-0.1v-0.2h-0.1v-0.1c-0.1-0.1-0.1-0.1-0.2-0.2c0-0.1,0-0.2-0.1-0.3h-0.1v-0.1h-0.1c0,0,0-0.1-0.1-0.1
				h-0.1c0,0,0-0.1-0.1-0.1h-0.1v-0.1c-0.1,0-0.1,0-0.2-0.1v-0.1h-0.3v-0.1c-0.1,0-0.2,0-0.3-0.1c0-0.1,0-0.1,0.1-0.2
				c0.1,0,0.1,0,0.2-0.1v-0.1h0.2v-0.1h0.1v-0.1c0.1,0,0.1,0,0.2-0.1v-0.1h0.2V59H15V59h0.2v-0.1c0.2,0,0.4-0.1,0.5-0.1v-0.1h0.2
				v-0.1c0.3-0.1,0.5-0.1,0.8-0.2v-0.1h0.2v-0.1h0.3v-0.1h0.3v-0.1H18c0.3-0.1,0.7-0.1,1-0.2c0.2-0.1,0.4,0,0.6-0.1
				c0.1-0.1,0,0,0.1-0.1c0.1-0.1,0.1-0.5,0.1-0.7c0-0.5-0.1-0.7-0.2-1.2c-0.1,0-0.1-0.1-0.2-0.1v-0.1c-0.2,0-0.4,0-0.5-0.1
				c-0.1,0.2-0.6,0.4-0.8,0.5h-0.2v0.1c-0.1,0-0.1,0-0.2,0.1v0.1h-0.2v0.1h-0.1c0,0.1-0.1,0.1-0.2,0.2h-0.1v0.1
				c-0.1,0-0.1,0.1-0.2,0.1V57c-0.1,0-0.1,0.1-0.2,0.1v0.1h-0.1c0,0.1,0,0.2,0.1,0.3c0,0-0.1,0-0.1,0.1v0.1c0,0.1-0.1,0-0.2,0.1
				c0-0.1-0.1-0.1-0.1-0.2h-0.1l-0.1-0.2c0,0-0.1,0-0.1-0.1v-0.2h-0.1V57H16v-0.1H16v-0.1c0,0-0.1,0-0.1-0.1v-0.1h-0.1
				c0-0.1-0.1-0.2-0.1-0.3c0.1-0.1,0.2-0.2,0.3-0.4v-0.1c0.1-0.1,0.3-0.2,0.4-0.3V55c0.2-0.1,0.2-0.2,0.5-0.2v-0.1h0.4v-0.1h0.2
				v-0.1h0.2v-0.1h0.1c0,0,0-0.1,0.1-0.1H18c0,0,0-0.1,0.1-0.1h0.2v-0.1h0.1v-0.1h0.1v-0.1c0.1,0,0.1,0,0.2-0.1c0,0,0-0.1,0.1-0.1
				c0.1,0,0.1,0,0.2-0.1c0,0,0-0.1,0.1-0.1c0.1,0,0.2,0,0.3-0.1c0,0,0-0.1,0.1-0.1h0.1c0,0,0-0.1,0.1-0.1h0.1c0,0,0-0.1,0.1-0.1
				c0.1,0,0.1,0,0.2-0.1c0-0.1,0.1-0.1,0.1-0.2c0.1,0,0.1,0,0.2-0.1c0,0,0-0.1,0.1-0.1c0.1,0,0.1,0,0.2-0.1c0,0,0-0.1,0.1-0.1
				c0.1,0,0.2-0.1,0.3-0.1l0.1-0.1c0.1,0,0.1,0,0.2-0.1v-0.1c0.1,0,0.2,0,0.3-0.1c0-0.1,0.1-0.1,0.1-0.2c0.1,0,0.2,0,0.3-0.1
				c0,0,0-0.1,0.1-0.1c0.1,0,0.1,0,0.2-0.1c0,0,0-0.1,0.1-0.1c0.1,0,0.1,0,0.2-0.1c0.1-0.1,0.1-0.2,0.2-0.3l0.3-0.1l0.1-0.1
				c0.1,0,0.2,0,0.3-0.1c0-0.1,0.1-0.1,0.1-0.2l0.3-0.1c0-0.1,0.1-0.1,0.1-0.2c0.1,0,0.2-0.1,0.3-0.1c0,0,0-0.1,0.1-0.1h0.1
				c0.1-0.1,0.1-0.1,0.2-0.2c0.1,0,0.2-0.1,0.3-0.1c0,0,0-0.1,0.1-0.1h0.1v-0.1c0.1-0.1,0.1-0.1,0.2-0.1c0-0.1,0-0.1,0.1-0.2h0.1V50
				h0.1v-0.1h0.1c0-0.1,0-0.1-0.1-0.2c-0.2,0-0.4,0-0.5-0.1v0.1h-0.2v0.1c0,0-0.2-0.1-0.3-0.1v0.1c-0.2,0-0.4,0-0.5,0.1v0.1
				c-0.1,0-0.1,0-0.2,0.1v0.1C23.2,50,23,50,22.8,50.1v0.1h-0.2v0.1h-0.1v0.1c-0.1,0-0.2,0-0.3,0.1v0.1h-0.1v0.1h-0.2v0.1h-0.1v0.1
				h-0.2v0.1h-0.1v0.1h-0.2v0.1h-0.2v0.1H21v0.1c-0.2,0-0.5,0.1-0.7,0.1V51h-0.1V51H20v0.1c-0.1,0-0.1,0-0.2,0.1v0.1h-0.3v0.1h-0.1
				v0.1h-0.5c-0.1,0-0.4,0.1-0.6,0v-0.1c-0.1,0-0.1,0-0.2-0.1v-0.1h-0.2c0,0,0-0.1-0.1-0.1h-0.4V51h-0.6V51h-1c0,0,0,0.1-0.1,0.1V51
				h-0.1v0.1h-0.4v0.1h-0.2v0.1h-0.1v0.1h-0.2v0.1h-0.1v0.1h-0.1c0,0,0,0.1-0.1,0.1h-0.1v0.1h-0.1v0.1H14c-0.1,0.1-0.2,0.2-0.4,0.2
				c-0.1,0.3-0.1,0.2-0.4,0.3v0.1h-0.1v0.1H13c0,0,0,0.1-0.1,0.1h-0.1c-0.1,0.1-0.1,0.1-0.2,0.2h-0.1c0,0,0,0.1-0.1,0.1
				c-0.1,0-0.2,0-0.3,0.1v0.1c-0.1,0-0.1,0-0.2,0.1c0,0,0,0.1-0.1,0.1c-0.1,0-0.3,0.1-0.4,0.1c0,0.1-0.1,0.2-0.2,0.3h-0.1v0.1
				c0,0-0.1,0-0.1,0.1c0,0.2,0,0.4-0.1,0.5h-0.1c0,0.1-0.1,0.2-0.1,0.3h-0.1c-0.1,0.4-0.3,0.8-0.4,1.1c0,0.1,0,0.3,0.1,0.4h0.1V56
				h-0.1v0.1h0.1v0.3h0.1c0,0.1,0,0.2,0.1,0.3h0.1v0.1h0.1V57c0,0,0.1,0,0.1,0.1v0.1h0c0,0.2,0,0.3,0.1,0.5h0.1c0,0.1,0,0.3,0.1,0.4
				h0.1c0,0.5,0,0.9-0.1,1.4c-0.1,0-0.2,0-0.3,0.1c-0.1-0.1-0.3-0.2-0.3-0.3h-0.2c0,0,0-0.1-0.1-0.1h-0.1V59c-0.1-0.1-0.1,0-0.1-0.2
				H10c0-0.2-0.1-0.2-0.2-0.2v-0.1c-0.2-0.1-0.2-0.2-0.3-0.3C9.3,58.1,9.2,58,9,57.8c0-0.1,0-0.1-0.1-0.2c-0.2-0.2-0.6-0.6-0.9-0.7
				c0-0.1-0.1-0.3-0.1-0.4c0,0,0.1,0,0.1-0.1H8.1v-0.1H8v-0.1h0.1c0.1-0.4,0-0.7,0.1-1c0.1,0,0.1-0.1,0.2-0.1V55c0,0,0.1,0,0.1-0.1
				v-0.1c0,0,0.1,0,0.1-0.1v-0.1c0,0,0.1,0,0.1-0.1v-0.1h0.1v-0.4h0.1v-0.3h0.1v-0.3h0.1v-0.2H9V53H9c0-0.2,0.1-0.3,0.1-0.5h0.1
				v-0.1H9.1c0-0.2,0.1-0.4,0.1-0.5h0.1c0-0.1,0-0.1,0.1-0.2h0.1v-0.3h0.1v-0.1h0.1v-0.2h0.1c0-0.1,0-0.1,0.1-0.2h0.1v-0.3
				c0,0,0,0,0.1-0.1h0.2c0.1,0.2,0.4,0.5,0.4,0.7c0,0.1,0,0.1-0.1,0.1c-0.1,0.3,0,0.9,0.1,1c0.1,0.1,0.2,0.1,0.4,0.1v-0.1
				c0.1,0,0.2,0,0.3-0.1c0,0,0-0.1,0.1-0.1c0.1,0,0.1,0,0.2-0.1c0,0,0-0.1,0.1-0.1c0.1,0,0.1,0,0.2-0.1c0,0,0-0.1,0.1-0.1h0.1v-0.1
				H12v-0.1h0.1v-0.1h0.2v-0.1c0.1,0,0.1,0,0.2-0.1c0-0.1,0.1-0.1,0.1-0.2c0.2-0.1,0.3-0.1,0.5-0.2v-0.1h0.1v-0.1h0.1
				c0,0,0-0.1,0.1-0.1c0.2-0.1,0.4-0.1,0.5-0.2c0-0.1,0.1-0.1,0.1-0.2c0.1,0,0.3,0,0.4-0.1c0,0,0-0.1,0.1-0.1h0.2v-0.1h0.3v-0.1
				c0.2-0.1,0.5-0.1,0.7-0.2v-0.1h0.1v-0.1c0.1,0,0.2,0,0.3-0.1v-0.1c0.1,0,0.3,0,0.4-0.1V50c0.1,0,0.1,0,0.2-0.1v-0.1h0.2v-0.1H17
				v-0.1c0.1,0,0.2-0.1,0.3-0.1v-0.1h0.3v-0.1h0.3v-0.1h0.3v-0.1h0.3v-0.1c0.2-0.1,0.3-0.1,0.5-0.2v-0.1h0.1c0-0.1,0-0.3-0.1-0.4
				h-0.1c0-0.1,0-0.2-0.1-0.3h-0.1v-0.1h-0.1v-0.1l-0.1-0.1c0-0.1,0-0.1-0.1-0.2c0,0-0.1,0-0.1-0.1c0-0.1-0.1-0.2-0.1-0.3
				c0,0-0.1,0-0.1-0.1v-0.2h-0.1C18,47.2,18,47,17.9,46.9c-0.2-0.1-0.4-0.1-0.6-0.2c0,0,0-0.1-0.1-0.1c-0.1,0-0.1,0-0.2-0.1
				c0,0,0-0.1-0.1-0.1c-0.1,0-0.2,0-0.3-0.1c0-0.1-0.1-0.1-0.1-0.2h-0.2v-0.1C16.1,46,16,46,15.9,45.7c0.1,0,0.1,0,0.2-0.1
				c0.1,0.1,0.4,0,0.5,0.1v0.1h0.7v-0.1h0.2v0.1h0.2v0.1h0.3v0.1h0.2v0.1h0.2v0.1h0.1V46c0.2,0,0.3,0.1,0.5,0.1v0.1
				c0.1,0,0.1,0,0.2,0.1v0.1c0.1,0,0.2,0,0.3,0.1c0.1,0.1,0.1,0.2,0.2,0.3c0.1,0,0.1,0,0.2,0.1v0.1c0.1,0,0.1,0,0.2,0.1
				c0,0.1,0.1,0.1,0.1,0.2h0.1v0.4c-0.4,0.2-0.2,0.9-0.2,1.3c0,0,0.1,0.1,0.1,0.1h0.2v0.1c0.3-0.1,0.5-0.1,0.8-0.2v-0.1h0.3v-0.1
				h0.4v-0.1h0.3v-0.1h0.4v0H23v-0.1h0.3v-0.1c0.4,0,0.7,0,1.1-0.1v0.1h0.2v-0.1c0.3-0.1,0.8,0,1,0.1h0.6v0.1h0.3v0.1h0.3
				c0.4,0.2,0.8,0.4,1.1,0.6c0.1,0.2,0.3,0.3,0.4,0.5c0.1,0.1,0.1,0.1,0.2,0.2v0.1c0.1,0.1,0.1,0.1,0.2,0.2V50c0,0,0.1,0,0.1,0.1
				v0.1c0.1,0.1,0.2,0.1,0.3,0.2c0.1,0.3,0.1,0.5,0.2,0.8c-0.2,0.2-0.1,0.2-0.4,0.2v0.1c-0.1,0-0.6-0.1-0.6-0.1c0,0,0-0.1-0.1-0.1
				h-0.1v-0.1h-0.4v-0.1h-0.1v-0.1c-0.3,0-0.5,0-0.8,0.1v0.1h-0.2v0.1h-0.2v0.1c-0.1,0-0.1,0-0.2,0.1v0.1H26v0.1h-0.1v0.1
				c-0.1,0-0.3,0-0.4,0.1v0.1h-0.1c0,0,0,0.1-0.1,0.1c-0.1,0-0.2,0-0.3,0.1v0.1c-0.1,0-0.2,0.1-0.3,0.1V52c-0.1,0-0.1,0-0.2,0.1
				c0,0,0,0.1-0.1,0.1c-0.1,0-0.2,0-0.3,0.1v0.1h-0.1v0.1h-0.2c0,0.1-0.1,0.1-0.1,0.2h-0.1v0.1c-0.1,0-0.2-0.1-0.2-0.1
				c-0.2,0-0.4,0-0.5,0.1v0.1h-0.1v0.1c-0.1,0-0.2,0-0.3,0.1c0,0,0,0.1-0.1,0.1h-0.1v0.1h-0.1v0.1H22c0,0,0,0.1-0.1,0.1h-0.1
				c-0.1,0.1-0.2,0.2-0.3,0.3h-0.2v0.1h-0.1v0.1h-0.1c0,0,0,0.1-0.1,0.1c-0.1,0-0.2,0-0.3,0.1v0.1h-0.1c-0.2,0.1-0.3,0.2-0.4,0.3
				c0,0-0.1,0-0.1,0.1v0.2c0.1,0,0.1,0.1,0.1,0.1h0.1v0.1h0.1c0.1,0.1,0.1,0.2,0.2,0.3c0,0,0.1,0,0.1,0.1v0.1L21,55v0.1H21v0.1h0.1
				v0.1h0.1v0.2h0.1v0.1h0.1v0.2h0.1c0,0.1,0,0.2,0.1,0.2h0.1v0.4h0.1c0,0.5,0,0.9-0.1,1.4h-0.1v0.4h0.1v0.2h0.1v0.1
				c0.2,0.2,0.4,0.4,0.6,0.5v0.1c0,0,0.1,0,0.1,0.1c0.1,0.1,0.3,0.2,0.3,0.5h0.1c0.1,0.1,0,0.3-0.1,0.4c-0.1,0-0.2,0.1-0.4,0.1v0.1
				H21.9z M26.9,59.4c0-0.1,0-0.1-0.1-0.2h0.1c0.2-0.1,0.3-0.3,0.5-0.4v-0.1c0.1,0,0.1-0.1,0.2-0.1v-0.5c-0.2-0.2-0.3-0.7-0.3-1
				c0.1,0,0,0,0.1-0.1c0.1,0,0.2,0,0.3,0.1c0,0,0,0.1,0.1,0.1h0.1v0.1H28c0,0,0,0.1,0.1,0.1h0.2v0.1h0.2c0.3,0.1,0.8,0.2,1,0.4
				c0,0,0,0.1,0.1,0.1c0.1,0.1,0.2,0.1,0.3,0.2v0.1c0,0,0.1,0,0.1,0.1v0.1h0.1c0.1,0.1,0,0.1,0.1,0.2v0.8c0,0-0.1,0-0.1,0.1v0.3
				c0,0,0,0-0.1,0.1c-0.1,0-0.6,0.2-0.8,0.2c0-0.1-0.1-0.1-0.1-0.2l-0.6-0.1c0,0,0-0.1-0.1-0.1h-0.1v-0.1h-0.1v-0.1H28v-0.1h-0.2
				v-0.1h-0.1v-0.1h-0.2v-0.1c-0.1,0-0.2,0-0.3,0.1c0,0,0,0.1-0.1,0.1H26.9z M17.8,59.6L17.8,59.6c-0.2,0.1-0.4,0.1-0.5,0.1H17v0.1
				c-0.1,0-0.2,0-0.3,0.1v0.1c-0.1,0.1-0.1,0-0.2,0.1h-0.1v0.2c0.1,0,0.1,0.1,0.2,0.1v0.1h0.1c0,0.1,0.1,0.1,0.1,0.2H17
				c0.1,0.1,0.1,0.1,0.2,0.2c0.1,0,0.1,0,0.2,0.1c0,0.1,0.1,0.1,0.1,0.2h0.2c0,0,0,0.1,0.1,0.1V61c0.2,0,0.3-0.1,0.4-0.2v-0.1
				c0.1,0,0.1,0,0.2-0.1c0-0.1,0.1-0.2,0.1-0.3c0,0,0.1,0,0.1-0.1c0.1-0.1,0.2-0.3,0.2-0.5c-0.1-0.1-0.4-0.1-0.6-0.1v-0.1H17.8z
				 M22.6,67.5c0,0.2,0.2,0.3,0.2,0.4v0.3c0,0.1,0.1,0.1,0.1,0.1c0,0.1,0,0.3-0.1,0.4c0.1,0.1,0.1,0.1,0.2,0.2V69h0.5
				c0.2-0.2,0.6-0.2,0.8-0.3v-0.1h0.3v-0.1c0.1,0,0.1,0,0.2-0.1v-0.1c0.2,0,0.4,0,0.5-0.1v-0.1h0.1v-0.1c0.1,0,0.2,0,0.3-0.1v-0.1
				c0.1,0,0.3,0,0.4-0.1v-0.1c0.1,0,0.1,0,0.2-0.1c0-0.1,0-0.1,0.1-0.2h0.1c0.1-0.1,0.1-0.1,0.3-0.2c0,0.1,0.3,0.2,0.3,0.3h0.2v0.1
				c0.1,0,0.1,0,0.2,0.1v0.1h0.1v0.1c0.1,0,0.1,0.1,0.2,0.1v0.1v0.1h0.1c0,0.1,0,0-0.1,0.1c0,0.2,0,0.1-0.2,0.2
				c-0.1,0.1-0.3,0-0.4,0.1v0.1h-0.2V69h-0.2V69h-0.2c0,0,0,0.1-0.1,0.1c-0.1,0-0.1,0-0.2,0.1c-0.1,0.1-0.1,0.2-0.2,0.3h-0.1
				c0,0,0,0.1-0.1,0.1c-0.1,0-0.1,0-0.2,0.1v0.1c-0.1,0-0.2,0-0.2,0.1c-0.1,0.1-0.2,0.2-0.3,0.3l-0.2,0.1c0,0,0,0.1,0,0.1h-0.1
				L25,70.3v0.1c-0.1,0-0.1,0-0.2,0c0,0,0,0.1-0.1,0.1h-0.1c-0.1,0.1-0.1,0.1-0.2,0.2c-0.1,0-0.1,0-0.2,0.1c0,0,0,0.1-0.1,0.1h-0.2
				V71c-0.1,0-0.1,0-0.2,0.1c0,0,0,0.1-0.1,0.1c-0.1,0-0.1,0-0.2,0.1c-0.1,0.1-0.1,0.1-0.2,0.2c-0.1,0-0.1,0-0.2,0.1
				c0,0,0,0.1-0.1,0.1c-0.2,0.1-0.4,0.1-0.5,0.2v0.1c-0.1,0.1-0.2,0.2-0.3,0.2c0,0.1,0,0.1-0.1,0.2h0.1c0.1,0.2,0.4,0.1,0.7,0.1
				c0.1-0.1,0.3,0,0.5-0.1v-0.1h0.1c0-0.1,0.1-0.1,0.1-0.2H24V72c0.1,0,0.2,0,0.3-0.1v-0.1c0.1,0,0.2,0,0.3,0.1V72h0.3V72h0.3v0.1
				h0.2v0.1h0.2v0.1h0.2v0.1h0.2c0,0,0,0.1,0.1,0.1c0.1,0.1,0.3,0,0.4,0.2v0.3c-0.1,0-0.1,0-0.2,0.1V73h-0.4c-0.1,0-0.5,0.2-0.7,0.1
				V73h-0.3v0.1h-0.2v0.1h-0.9v0.1h-0.3v0.1h-0.1v-0.1h-0.1v0.1H23v0.1h-0.3v0.1c-0.1,0-0.1,0-0.2,0.1v0.1h-0.1c0,0,0,0.1-0.1,0.1
				c-0.1,0.1-0.3,0-0.4,0.1c0,0,0,0.1-0.1,0.1c0,0-0.1,0-0.1,0.1V75h0.1V75c-0.1,0.1-0.1,0.4-0.1,0.5c0.2,0.1,0.2,0.2,0.6,0.2v-0.1
				h0.2v-0.1c0.1,0,0.1,0,0.2-0.1v-0.1c0.1,0,0.1,0,0.2,0.1v-0.1c0.2,0,0.4,0,0.5-0.1v-0.1c0.1,0,0.4,0.1,0.4,0.1v-0.1h0.3v-0.1H25
				c0.7,0,1.3,0.1,1.8,0.3h0.4v0.1c0.1,0,0.3,0,0.4,0.1v0.1c0.1,0,0.2,0,0.2,0.1v0.1h0.1C28,76,28,76,28,76.1h0.2
				c0.1,0.1,0.1,0.2,0.2,0.3h0.1c0,0,0,0.1,0.1,0.1h0.1l0.1,0.3c0.1,0,0.1,0.1,0.2,0.1c0.1,0.2,0.2,0.3,0.3,0.5V78h0.1v0.2h0.1v1
				c0,0.1,0.1,0.1,0.1,0.1c0,0.3,0,0.7-0.1,1h-0.1v0.5h-0.1c0,0.3,0,0.6-0.1,0.9h-0.1v0.1c0,0-0.1,0-0.1,0.1
				C29,82,29,82.2,28.9,82.4h-0.1v0.1h-0.1v0.1c0,0-0.1,0-0.1,0.1v0.1c0,0-0.1,0-0.1,0.1c0,0.1-0.1,0.3-0.1,0.4h-0.1
				c-0.1,0.1-0.1,0.1-0.2,0.3c-0.1,0-0.2,0.1-0.3,0.1v0.1h-0.2v0.1h-0.1v0.1h-0.1c-0.1,0.1-0.2,0.2-0.3,0.3h-0.2v0.1h-0.2v0.1
				c-0.4,0-0.8,0-1.2,0.1v-0.1h-0.1c0-0.1-0.1-0.1-0.1-0.2c-0.1,0-0.2-0.1-0.3-0.1v-0.1c-0.1,0-0.4,0.1-0.4,0.2
				c-0.1,0-0.2,0-0.3-0.1c0-0.1-0.1-0.1-0.1-0.1c0-0.1,0-0.2-0.1-0.3c0,0-0.1,0-0.1-0.1v-0.3c-0.1-0.1-0.2-0.1-0.3-0.2V83h-0.1
				c0-0.1,0-0.1-0.1-0.2h0.1v-0.3h-0.1v-0.1c0,0-0.1,0-0.1-0.1v-0.2c-0.1-0.2-0.2-0.4-0.3-0.5c-0.1-0.1-0.3-0.2-0.4-0.1v0.1h-0.1
				v0.1h-0.3v0.1h-0.1v0.1c-0.1,0-0.2,0-0.3,0.1v0.1c-0.1,0-0.1,0-0.2,0.1V82c-0.1,0-0.3,0-0.4,0.1c0,0,0-0.1-0.1-0.1
				c0.1,0,0.1-0.1,0.1-0.1h0.1v-0.1h0.1c0,0,0-0.1,0.1-0.1h0.1v-0.1c0.1-0.1,0.1-0.1,0.3-0.2v-0.1h0.1c0.1-0.1,0.1-0.2,0.2-0.2v-0.1
				h0.1c0-0.1,0.1-0.2,0.1-0.4c-0.1,0-0.2,0-0.3-0.1v-0.1c-0.1,0-0.2,0-0.3,0.1h-0.3v0.1h-0.1v0.1c-0.2,0-0.4,0-0.7,0.1v0.1
				c-0.1,0-0.2,0-0.3,0.1L20.4,81c-0.1,0-0.3,0-0.4,0.1v0.1c-0.1,0-0.1,0-0.2,0.1v0.1c-0.1,0-0.2,0-0.3,0.1c0,0,0,0.1-0.1,0.1h-0.1
				c0,0,0,0.1-0.1,0.1c-0.1,0.1-0.2,0.2-0.4,0.2c0-0.1,0-0.1-0.1-0.2h-0.1v-0.2c0,0-0.1,0-0.1-0.1v-0.1h-0.1v-0.1c0,0-0.1,0-0.1-0.1
				c0-0.1,0-0.1-0.1-0.2h-0.1v-0.5v-0.6h0.1v-0.3c0-0.1,0.1-0.4,0.1-0.5v-0.3h0.1c0.1-0.2,0-0.3-0.1-0.4c-0.1-0.1-0.8-0.1-1.1-0.1
				c-0.1,0.1-0.6,0-0.9,0v-0.3c0.2-0.1,0.4-0.2,0.7-0.3c0.1,0,0.2,0,0.3-0.1c0,0,0-0.1,0.1-0.1h0.2v-0.1h0.1c0,0,0-0.1,0.1-0.1h0.2
				c0,0,0-0.1,0.1-0.1h0.1v-0.1c0.1,0,0.2,0,0.3-0.1V77h0.1c0,0,0-0.1,0.1-0.1h0.2v-0.1h0.2v-0.1h0.2v-0.1h0.2v-0.1h0.1v-0.1
				c0.1,0,0.2-0.1,0.3-0.1v-0.1c0.3-0.1,0.5-0.1,0.8-0.2c0,0,0-0.1,0.1-0.1c0.1,0,0.1,0,0.2-0.1c0-0.4,0.1-1.1,0-1.4v-0.2h0.1
				c0-0.1,0-0.3-0.1-0.4h-0.1c-0.1-0.1-0.3-0.2-0.5-0.1v0.1h-0.1v0.1h-0.3v0.1c-0.1,0-0.1,0-0.2,0.1c0,0,0,0.1-0.1,0.1
				c-0.1,0-0.2,0-0.3,0.1v0.1c-0.1,0-0.1,0-0.2,0.1v0.1H19v0.1c-0.2,0.1-0.3,0.1-0.5,0.2v-0.1h0.1c0.2-0.2,0.4-0.1,0.4-0.5
				c-0.1,0-0.1,0-0.2-0.1v0.1h-0.3v0.1h-0.2v0.1h-0.2v0.1h-0.2v0.1c-0.1,0-0.3,0-0.4,0.1v0.1h-0.1v0.1c-0.1,0-0.2,0-0.3,0.1v0.1
				c-0.2,0-0.4,0-0.5,0.1v0.1h-0.1v0.1h-0.1V75h-0.1V75H16v0.1h-0.1v0.1h-0.2v0.1h-0.4v0.1H15v0.1c-0.2,0-0.3,0-0.5,0.1
				c0,0,0,0.1-0.1,0.1c-0.1,0.1-0.1-0.1-0.2,0.2h-0.1c0,0.1,0,0.2-0.1,0.3h-0.1v0.2h-0.1c0,0.1,0,0.1-0.1,0.2H14v0.1H14v0.1h-0.1
				v0.1l-0.1,0.1v0.1c0,0-0.1,0-0.1,0.1c0,0.1,0,0.2-0.1,0.3h-0.1v0.1c0,0-0.1,0-0.1,0.1v0.2c0,0-0.1,0-0.1,0.1v0.1h-0.1
				c0,0.1,0,0.2-0.1,0.3h-0.1v0.1c0,0-0.1,0-0.1,0.1v0.2H13v0.2H13c0,0.1,0,0.2-0.1,0.3H13c0,0.1,0,0.2,0.1,0.3H13v0.1
				c0,0-0.1,0-0.1,0.1c0,0.1,0,0.2-0.1,0.3h-0.1v0.1h-0.1c0,0.1,0,0.2-0.1,0.3h-0.1v0.2h-0.1v0.2h-0.1v0.2h-0.1v0.1h-0.1v0.2h-0.1
				V81h-0.1v0.3h-0.1v0.2h-0.1c0,0.1,0,0.1-0.1,0.2H12v0.2H12c0,0.1-0.1,0.2-0.1,0.3h-0.1v0.1h-0.1v0.2h-0.1v0.1h-0.1v0.1
				c-0.1,0-0.1,0.1-0.2,0.1v0.1h-0.1v0.2h-0.1c0,0.1,0,0.2-0.1,0.3l-0.1,0.1v0.1c0,0-0.1,0-0.1,0.1c0,0.1,0,0.1-0.1,0.2h0
				c0,0.1-0.1,0.2-0.1,0.3h-0.1c0,0.1,0,0.1-0.1,0.2c0,0-0.1,0-0.1,0.1v0.2h-0.1v0.1h-0.1V85h0.1c0,0.1,0,0.1-0.1,0.2h-0.2
				c-0.1-0.2-0.5-0.5-0.7-0.5c0-0.1,0-0.1-0.1-0.2H9.5c0-0.1,0-0.2-0.1-0.3H9.4c0-0.2-0.1-0.5-0.1-0.7H9.3v-0.1H9.2v-0.2H9.1v-0.2
				H9.1v-0.2H9v-0.2H9v-0.2H8.9v-0.2H8.9v-0.4H8.8c0-0.3,0-0.6-0.1-0.9H8.7c0-0.1,0-0.1,0.1-0.1v-0.5c0-0.8,0.1-1.5,0.1-2.1h0.1
				v-0.5H9C9,77.4,9,77.2,9,77H9C9,76.9,9,76.8,9,76.8V76H9v-0.2H8.9v-0.1H8.9v-0.1c-0.1,0-0.1-0.1-0.2-0.1c0-0.1,0-0.1-0.1-0.2H8.6
				c-0.1-0.2-0.1-0.7-0.1-1c0.1,0,0.1,0,0.3-0.1c0.1,0.1,0.2,0.1,0.3,0.2c0,0,0,0.1,0.1,0.1h0.1v0.1c0.1,0,0.3,0,0.4,0.1v0.1h0.1
				v0.1c0.1,0,0.2,0,0.3,0.1v0.1h0.2c0,0,0,0.1,0.1,0.1h0.2c0.2,0.1,0.3,0.3,0.5,0.4v0.1c0,0,0.1,0,0.1,0.1v0.1c0.1,0,0.1,0,0.2,0.1
				c0.1,0.1,0.2,0.3,0.2,0.6h-0.1v0.2h-0.1c0,0.1,0,0.1-0.1,0.2h-0.1v0.2h-0.1c-0.1,0.2,0,0-0.2,0.1V77h-0.1
				c-0.1,0.1-0.1,0.1-0.2,0.2h-0.3C10.3,77,10,77,9.7,77.1c0,0.2-0.1,0.2-0.2,0.3H9.4v0.1H9.4c0,0.2,0,0.4-0.1,0.6H9.3v0.2H9.2v0.2
				H9.1c0,0.3,0,0.5-0.1,0.8H9c0,0,0,0.1,0.1,0.1H9v0.3H9v0.3H8.9v0.4H8.9c0,0.1,0,0.3,0.1,0.4c0,0.1,0,0.1-0.1,0.2h0.1
				c0,0.1,0,0.1-0.1,0.2h0.1v0.3H9c0,0.1-0.1,0.2-0.1,0.3H9v0.3c0.1,0.4,0.2,1.4,0.6,1.5v0.1h0.2c0.1-0.1,0.2-0.1,0.2-0.2v-0.1
				c0,0,0.1,0,0.1-0.1c0-0.1,0-0.1,0.1-0.2h0.1c0-0.1,0-0.1,0.1-0.2c0.1,0,0.1-0.1,0.2-0.1v-0.1c0,0,0.1,0,0.1-0.1v-0.2
				c0,0,0.1,0,0.1-0.1v-0.1c0,0,0.1,0,0.1-0.1v-0.1c0,0,0.1,0,0.1-0.1c0-0.1,0-0.1,0.1-0.2c0.1,0,0.1-0.1,0.2-0.1
				c0-0.1,0-0.2,0.1-0.3h0.1c0-0.1,0-0.1,0.1-0.2h0.1v-0.2h0.1v-0.1h0.1v-0.1c0,0,0.1,0,0.1-0.1c0-0.1,0-0.1,0.1-0.2
				c0,0,0.1,0,0.1-0.1c0-0.1,0-0.1,0.1-0.2c0,0,0.1,0,0.1-0.1v-0.1h0.1v-0.1l0.1-0.1v-0.1c0.1,0,0.1-0.1,0.2-0.1
				c0-0.1,0-0.2,0.1-0.2c0,0,0.1,0,0.1-0.1v-0.1l0.1-0.1v-0.1h0.1v-0.1h0.1v-0.1h0.1v-0.1h0.1v-0.1h0.1l0.1-0.3h0.1
				c0-0.1,0-0.2,0.1-0.3c0,0,0.1,0,0.1-0.1c0-0.1,0.1-0.2,0.1-0.3c0.1,0,0.1-0.1,0.2-0.1v-0.2c0,0,0.1,0,0.1-0.1v-0.2h0.1v-0.1h0.1
				v-0.1c0,0,0.1,0,0.1-0.1c0-0.1,0-0.1,0.1-0.2c0.1-0.3,0.3-0.4,0.3-0.8c-0.1,0-0.1-0.1-0.1-0.1h-0.2v-0.1h-0.3
				c-0.1,0-0.3-0.1-0.3-0.2h-0.1v-0.2c0.4,0,0.7-0.1,0.9-0.2h0.3v-0.1h0.2v-0.1h0.2v-0.1c0.1,0,0.1,0,0.2-0.1c0-0.1,0.1-0.1,0.1-0.2
				H15v-0.1c0.1,0,0.1-0.1,0.2-0.1v-0.2h0.1V74h0.1c0-0.1,0.1-0.2,0.1-0.3h0.1v0.2c0,0-0.2,0.3-0.2,0.4h0.1c0.1,0.1,0.2,0.1,0.4,0.1
				c0.7-0.2,1.4-0.5,2.1-0.7h0.2c0.3-0.1,0.5-0.3,0.8-0.4v-0.1h0.1c0-0.1,0-0.2-0.1-0.3h-0.1v-0.2h-0.1v-0.2h-0.1v-0.3h-0.1V72h-0.1
				v-0.2h-0.1c0-0.3,0-0.5-0.1-0.8c-0.1-0.1-0.1-0.3-0.2-0.4c-0.2,0-0.3-0.1-0.5,0v0.1h-0.2c0,0,0,0.1-0.1,0.1h-0.1
				c0,0.1-0.1,0.1-0.1,0.2h-0.2V71H17v0.1h-0.3c0,0,0,0.1-0.1,0.1h-0.1c0,0,0,0.1-0.1,0.1h-0.1c-0.2,0.1-0.4,0.5-0.4,0.8
				c-0.2,0-0.5,0.1-0.7,0.1v0.1H15v0.1c-0.1,0-0.2,0-0.3-0.1c0-0.1,0-0.3-0.1-0.4h0.1c0-0.1,0-0.3,0.1-0.4h0.1c0-0.1,0-0.1,0.1-0.2
				c0.1,0,0.1-0.1,0.2-0.1c0-0.2,0.2-0.3,0.3-0.4c0,0,0.1,0,0.1-0.1c0-0.1,0-0.1,0.1-0.2c0.1-0.1,0.4-0.2,0.6-0.2
				c0.1,0.1,0.1,0.1,0.2,0.2h0.1c0,0,0,0.1,0.1,0.1h0.4v-0.1h0.2v0h0.1v-0.1h0.2v-0.1h0.1v-0.1h0.2v-0.1H18c0-0.1,0.1-0.1,0.1-0.2
				c0.3-0.3-0.2-1.3-0.3-1.6c0.2,0,0.1,0,0.2-0.2c-0.1-0.1,0,0-0.1-0.1c-0.1,0-0.2,0-0.3,0.1c0-0.1,0-0.1-0.1-0.2h0.1V68
				c0.1,0,0.3,0,0.4,0.1v0.1H18c0,0,0,0.1,0.1,0.1c0.1,0,0.2,0.1,0.3,0.1c0.1,0.1,0.1,0.1,0.2,0.2c0.2,0.2,0.4,0.3,0.5,0.5
				c0,0.1,0,0.1,0.1,0.2l0.1,0.1v0.1h0.1v0.1c0.1,0.1,0.2,0.2,0.3,0.3c0.6,0,1-0.1,1.5-0.2c0-0.1,0.1-0.1,0.1-0.2h0.1v-0.1h0.1
				c0-0.4,0-0.7,0.1-1.1c0-0.1,0.2-0.3,0.1-0.6c-0.1-0.2-0.3-0.4-0.4-0.6c0.1,0,0.1,0,0.3-0.1v0.1h0.2c0,0,0,0.1,0.1,0.1h0.2v0.1
				h0.1v0.1h0.2v0.1h0.2c0,0,0,0.1,0.1,0.1C22.4,67.5,22.5,67.5,22.6,67.5 M9.9,69.4c0.2,0,0.3,0,0.4,0.1c0,0,0,0.1,0.1,0.1h0.2v0.1
				h0.2v0.1h0.1v0.1H11v0.1h0.2c0,0,0,0.1,0.1,0.1h0.1c0,0,0,0.1,0.1,0.1h0.1v0.1h0.1c0.1,0.1,0.1,0.2,0.2,0.3h0.1
				c0,0,0,0.1,0.1,0.1h0.1c0,0,0,0.1,0.1,0.2h0.1c0.1,0.1,0.1,0.2,0.3,0.2c0.1,0.4,0.3,0.3,0.3,0.8c-0.1,0.1-0.2,0.2-0.3,0.2
				c-0.2,0-0.5-0.1-0.7-0.1v-0.1c-0.2,0-0.3,0.1-0.5,0.1v-0.1c-0.1,0-0.1,0-0.2-0.1v-0.1c-0.2,0-0.3,0-0.4-0.1v-0.3h0.1
				c0-0.1,0-0.3,0.1-0.4h-0.1c-0.1-0.2-0.2-0.2-0.3-0.3v-0.1c0,0-0.1,0-0.1-0.1v-0.1c0,0-0.1,0-0.1-0.1v-0.1h-0.1V70H10v-0.2
				c0,0-0.1,0-0.1-0.1C9.9,69.6,9.9,69.5,9.9,69.4 M22.8,69.8V70h-0.1c-0.1,0.1-0.1,0.1-0.2,0.2h-0.1v0.1h-0.1
				c-0.1,0.2-0.1,0.4-0.2,0.5l0.1,0.1h-0.1c-0.1,0.2,0,0.4,0,0.6c0.1,0,0.2,0,0.3,0.1c0.1-0.2,0.2-0.2,0.4-0.3
				c0.1-0.1,0.1-0.1,0.2-0.2h0.1c0.2-0.2,0.4-0.4,0.5-0.6h0.1c0-0.1,0.1-0.1,0.1-0.2H24c0,0,0-0.1,0.1-0.1c0.1-0.1,0.1-0.1,0.2-0.2
				v-0.1c0,0,0.1,0,0.1-0.1v-0.2c-0.1-0.1,0,0-0.1-0.1c-0.1,0-0.2-0.1-0.4-0.1C23.8,69.7,23.1,69.8,22.8,69.8 M20.9,72.7
				c0.1-0.6,0.1-1.5,0.2-2c0-0.2-0.1-0.5-0.2-0.5h-0.3v0.1c-0.1,0.1-0.2,0-0.2-0.1v0.1h-0.2v0.1h-0.1c0,0,0,0.1-0.1,0.1
				c-0.1,0.1-0.1-0.1-0.2,0.2h-0.1c0,0.2,0,0.4,0.1,0.7h0.1c0,0.2,0,0.4,0.1,0.7h-0.1V72h-0.1v0.3h-0.1c-0.1,0.2,0,0.3,0.1,0.4
				c0.1,0.2,0.4,0.2,0.6,0.1h0.2v-0.1C20.8,72.7,20.8,72.7,20.9,72.7 M24.8,80.8c-0.1,0-0.2,0.1-0.3,0.2V81h-0.1v0.1
				c-0.1,0-0.1,0.1-0.2,0.1c0,0,0,0.1-0.1,0.1c-0.2,0-0.3,0.1-0.5,0.1c0,0.2-0.1,0.2-0.1,0.4c0.1,0,0.1,0.1,0.1,0.1h0.1V82
				c0.1,0,0.2,0,0.3,0.1c0,0,0,0.1,0.1,0.1c0.1,0,0.2,0,0.3,0.1v0.1c0.1,0,0.1,0,0.2,0.1v0.1h0.4v0.1c0.1,0,0.1,0,0.2-0.1h0.1v0.1
				h0.2v-0.1c0,0,0.1,0,0.1,0.1c0.2,0,0.4,0,0.5-0.1c0-0.1,0.1-0.1,0.1-0.2h0.1c0.1-0.1,0.1-0.1,0.2-0.2h0.1v-0.1c0,0,0.1,0,0.1-0.1
				c0-0.1,0-0.2,0.1-0.3h0.1l0.1-0.2h0.1c0-0.1,0-0.3,0.1-0.4h0.1v-0.2h0.1v-0.2h0.1v-0.3h0.1v-0.4h0.1v-0.1h0.1v-0.6h0.1
				c0-0.2,0-0.4-0.1-0.6c0-0.4,0-1.1-0.1-1.3v-0.4h-0.1v-0.1c0,0-0.1,0-0.1-0.1c0-0.1,0-0.1-0.1-0.2H27v-0.1h-0.1c0,0,0-0.1-0.1-0.1
				h-0.1v-0.1h-0.2v-0.1h-0.1v-0.1h-0.1v-0.1c-0.2,0-0.3,0-0.5,0.1v-0.1c-0.5,0-0.9,0-1.4-0.1v0.1H24v0.1c-0.1,0-0.3,0-0.4,0.1v0.1
				h-0.2v0.1c-0.2,0-0.4,0-0.6,0.1v0.1c-0.1,0-0.2,0.1-0.3,0.1v0.1c-0.2,0-0.5,0.1-0.7,0.1v0.1c-0.2,0.1,0,0-0.1,0.2h-0.1v0.2h-0.1
				v0.6c0,0.4-0.1,0.8-0.1,1l-0.1,0.1h0.1c0.1,0.3-0.1,0.5-0.1,0.8c0.3,0.1,0.7,0.1,1.1,0.1c0.2-0.1,0.4,0,0.7-0.1
				c0,0,0-0.1,0.1-0.1h0.1v-0.1c0.1,0,0.2,0,0.3-0.1c0.1,0.2,0.2,0.1,0.4,0.2v0.1h0.2v0.1h0.2c0,0,0,0.1,0.1,0.1
				c0.2,0.1,0.3,0.1,0.4,0.3H25c0,0.1,0,0.3,0.1,0.4C24.9,80.6,24.8,80.7,24.8,80.8 M16.6,83.7c-0.5,0.1-0.9-0.1-1.3-0.3
				c-0.1,0-0.1,0-0.2-0.1c-0.1-0.1-0.1-0.2-0.2-0.3c-0.2-0.2-0.4-0.1-0.4-0.4c-0.1-0.1-0.1-0.9-0.1-1.3c0-0.1,0-0.1,0.1-0.2
				c-0.1-0.4,0-1.1,0.1-1.4v-0.2h0.1v-0.1h0.1v-0.2h0.1V79h0.1c0-0.1,0-0.1-0.1-0.2h0.1v-0.1h0.1c0-0.1,0-0.3,0.1-0.4H15
				c0-0.1,0-0.2,0.1-0.2c0,0,0.1,0,0.1-0.1v-0.1h0.1v-0.2h0.1v-0.1h0.1v-0.1c0.1-0.2,0.4-0.3,0.4-0.7h0.1v0.3
				c-0.2,0.2,0,0.5-0.1,0.8h-0.1v0.2h-0.1v0.1h-0.1c0,0.2-0.1,0.5-0.1,0.7h-0.1v0.3h-0.1v0.6h-0.1V80h-0.1c-0.1,0.4,0.1,0.9,0.2,1.2
				c0,0.2,0,0.4,0.1,0.7c0.1,0,0.1,0.1,0.2,0.1V82c0.1,0.1,0.1,0.1,0.2,0.2v0.1c0.1,0.1,0.3,0.2,0.4,0.3v0.1c0,0,0.1,0,0.1,0.1v0.2
				c0,0,0.1,0,0.1,0.1v0.1h0.1v0.2c0,0,0.1,0,0.1,0.1C16.7,83.5,16.6,83.5,16.6,83.7 M19.5,77.6c0,0.2-0.1,0.6-0.2,0.7
				c0,0-0.1,0-0.1,0.1v0.1h-0.1c0,0.2,0,0.4-0.1,0.6H19c0,0,0,0.1,0.1,0.1H19c0,0.3-0.1,0.6-0.1,0.9h0c0,0.1,0,0.1,0.1,0.2
				c0.1,0,0.1,0.1,0.2,0.1h0.6c0,0,0-0.1,0.1-0.1c0.1,0,0.3,0,0.4-0.1v-0.1h0.1v-0.1h0.4v-0.1c0.3-0.1,0.4,0,0.4-0.4
				c-0.1-0.1,0,0-0.1-0.1c-0.4-0.2-0.6-0.2-0.6-0.8c0.3-0.2,0.2-0.9,0.2-1.3c-0.1,0-0.1,0-0.2-0.1c-0.1-0.1-0.4-0.1-0.5-0.1v0.1
				h-0.1v0.1h-0.2v0.1C19.6,77.5,19.6,77.6,19.5,77.6 M19.7,81.1h-0.1C19.6,81.2,19.6,81.1,19.7,81.1l-0.1,0.1h0.1V81.1z M24.8,89.2
				v-0.1c-0.2,0-0.4,0.1-0.7,0V89h-0.4V89h-1V89c-0.1,0-0.2,0-0.3-0.1V89c-0.1,0-0.2,0-0.3,0.1v0.1h-0.1v0.1h-0.2v0.1h-0.2
				c0,0,0,0.1-0.1,0.1l-0.3,0.1v0.1h-0.1v0.1c-0.2,0-0.4,0.1-0.5,0.1v0.1c-0.1,0-0.1,0-0.2,0.1v0.1h-0.2v0.1c-0.1,0-0.1,0-0.2,0.1
				v0.1H20v0c-0.1,0-0.2,0-0.3,0.1v0.1c-0.1,0-0.2,0.1-0.3,0.1v0.1h-0.3c-0.1,0.1-0.1,0.1-0.2,0.2c-0.3,0.1-0.5,0.3-0.8,0.4h-0.5
				v0.1c-0.2,0-0.4,0-0.7,0.1v-0.1H17c-0.1,0-0.3,0-0.4,0.1v-0.1H16v-0.1c-0.1,0-0.3,0-0.4-0.1v0.1H15v0.1h-0.3V91h-0.4V91h-0.2v0.1
				h-0.4v0.1c-0.1,0-0.1,0-0.2-0.1v0.1c-0.3,0-0.6,0-0.9,0.1v0.1h-0.1v0.1h-0.1v-0.1h-0.3v0.1h-0.6c-0.1,0-0.2,0-0.3-0.1v0.1
				c-0.1,0-0.2,0-0.3,0.1c0,0,0,0.1-0.1,0.1h-0.2v0.1c-0.1,0.1-0.2,0.2-0.3,0.2c0,0.1,0,0.2-0.1,0.3c-0.1,0-0.1,0.1-0.2,0.1v0.1
				h-0.1v0.4h-0.1c0,0.1,0,0.1-0.1,0.2H10V93c0,0-0.1,0-0.1,0.1c-0.1,0.2-0.1,0.4-0.2,0.5c-0.1,0.3,0,1,0.1,1.2v0.5h0.1v0.2h0.1
				c0,0.1,0,0.1-0.1,0.2h0.1c0,0.1,0,0.2,0.1,0.3H10v0.1H10v0.2h0.1v0.2h0.1v0.3h0.1V97h0.1c0.2,0.5-0.3,1-0.4,1.4
				c-0.2,0-0.4-0.2-0.5-0.3c0,0,0-0.1-0.1-0.1H9.1c-0.1-0.1-0.2-0.2-0.3-0.3c0-0.1,0-0.1-0.1-0.2c-0.1-0.1-0.2-0.1-0.3-0.2
				c0-0.1,0-0.2-0.1-0.3H8.4v-0.1H8.3c0-0.1,0-0.2-0.1-0.3c0,0-0.1,0-0.1-0.1C8,96.3,7.9,96.1,7.6,96c0-0.2,0.1-0.4,0.1-0.4
				c0,0-0.1,0-0.1-0.1c0-0.1,0-0.2-0.1-0.3h0.1v-0.1h0.1c0-0.2,0-0.4,0.1-0.5h0.1v-0.2h0.1v-0.1h0.1v-0.4h0.1v-0.7H7.9v-0.1h0.1
				v-0.5H8v-0.3h0.1v-0.2h0.1v-0.2h0.1c0-0.2,0-0.3,0.1-0.5h0.1v-0.2c0,0,0.1,0,0.1-0.1v-0.1h0.1c0-0.1,0-0.2,0.1-0.4
				c0,0,0.1,0,0.1-0.1v-0.1c0,0,0.1,0,0.1-0.1v-0.1c0,0,0.1,0,0.1-0.1v-0.2h0.1v-0.1h0.1c0-0.1,0-0.1,0.1-0.2c0.1,0,0,0,0.1,0.1h0.1
				c0,0.1,0,0.2,0.1,0.3h0.1v0.1h0.1v0.1h0.1v0.1c0.1,0.1,0.1,0.1,0.2,0.2v0.2h0.1c0.1,0.2,0.1,0.3,0.5,0.3c0.1-0.1,0.1-0.1,0.2-0.1
				v-0.1h0.2c0-0.1,0.1-0.1,0.1-0.2h0.1c0,0,0-0.1,0.1-0.1h0.1c0,0,0-0.1,0.1-0.1c0.1,0,0.1,0,0.2-0.1v-0.1c0.1,0,0.3,0,0.4-0.1
				v-0.1c0.1,0,0.1,0,0.2-0.1v-0.1H12v-0.1h0.2v-0.1h0.2v-0.1h0.3c0,0,0-0.1,0.1-0.1c0.3,0,0.5-0.1,0.8-0.1V90h0.1V90h0.3v0h0.2
				v-0.1h0.3v-0.1h0.4v-0.1h0.1v-0.1h0.2v-0.1h0.3v-0.1h0.3v-0.1H16v-0.1h0.5v-0.1c0.2-0.1,0.4,0.1,0.5-0.1c0.1-0.1,0.1-0.2,0.1-0.3
				h-0.1c0-0.1,0-0.2-0.1-0.3c0,0-0.1,0-0.1-0.1c-0.1-0.1-0.2-0.2-0.2-0.4c-0.3-0.1-0.1,0-0.2-0.2c0,0-0.1,0-0.1-0.1v-0.1
				c0,0-0.1,0-0.1-0.1v-0.1c-0.1,0-0.1-0.1-0.2-0.1v-0.1H16v-0.1h-0.1c0,0,0-0.1-0.1-0.1h-0.1c0,0,0-0.1-0.1-0.1
				c-0.1,0-0.1,0-0.2-0.1v-0.1c-0.1,0-0.1,0-0.2-0.1c0-0.2,0-0.1-0.2-0.2c-0.1-0.3-0.2-0.2-0.3-0.5c0.1,0,0,0,0.1-0.1
				c0.3,0,0.7,0,1-0.1v-0.1h0.1v-0.1c0.2-0.2,0.1-0.2,0.4-0.2c0.1,0.1,0.2,0.2,0.3,0.2h0.1c0,0,0,0.1,0.1,0.1h0.1c0,0,0,0.1,0.1,0.1
				c0.1,0,0.2,0.1,0.3,0.1c0,0,0,0.1,0.1,0.1h0.1c0,0,0,0.1,0.1,0.1h0.1v0.1h0.2v0.1H18v0.1c0.1,0,0.3,0,0.4,0.1V87h0.1
				c0,0,0,0.1,0.1,0.1h0.1c0,0.1,0.1,0.1,0.1,0.2h0.1v0.1c0,0,0.1,0,0.2,0.1c0,0,0,0.1,0.1,0.1h0.1c0.1,0.1,0.1,0.3,0.2,0.4h0.1v0.1
				h0.1v0.1c0.1,0,0.1,0.1,0.2,0.1v0.2h0.1v0.1h0.1c0.1,0.1,0,0.1,0.2,0.1v0.1c0.3,0,0.6,0,0.9-0.1v-0.1c0.1,0,0.1,0,0.1,0.1H21
				v-0.1h0.3c0,0,0,0.1,0.1,0.1v-0.1c0.2,0,0.5,0,0.7-0.1v0.1c0,0,0.1,0,0.1-0.1c0.3,0,0.8,0,1,0.1c0.1,0,0.1,0,0.2-0.1v0.1h0.2v0.1
				h0.4v0.1h0.3v0.1h0.5v0.1c0.1,0,0.1-0.1,0.2-0.1v0.1h0.3v0.1h0.2V89h0.2V89h0.2v0.1h0.2v0.1h0.2v0.1h0.1v-0.1
				c0.1,0,0.3,0,0.4,0.1v0.1h0.1c0.1,0.1,0.1,0.1,0.2,0.2h0.1v0.1c0.1,0,0.2,0,0.3,0.1v0.1c0.1,0,0.1,0,0.2,0.1
				c0,0.1,0.1,0.1,0.1,0.2c0.1,0,0.1,0,0.2,0.1C28,90,28,90,28.1,90.1h0.1c0.1,0.1,0.2,0.5,0.3,0.8c-0.2,0.1,0,0.1-0.1,0.3l-0.1,0.1
				c-0.1,0.2-0.1,0.2-0.3,0.3v0.1h-0.2v0.1c-0.2,0-0.4,0-0.7-0.1v0.1c-0.2,0-0.5,0-0.7-0.1c0-0.1-0.1-0.1-0.1-0.2
				c-0.1,0-0.1,0-0.2-0.1c0,0,0-0.1-0.1-0.1H26c-0.1-0.1-0.1-0.2-0.2-0.3h-0.2v-0.1h-0.2v-0.1h-0.2v-0.1h-0.4v0.1
				c-0.1,0,0,0-0.1-0.1h-0.1v0.1h-0.4c0,0,0,0.1-0.1,0.1c-0.1,0-0.1,0-0.2,0.1c0,0.1-0.1,0.1-0.1,0.2c-0.1,0-0.1,0-0.2,0.1v0.1h-0.2
				c-0.3,0.1-0.6,0.2-0.8,0.3v-0.1l0.4-0.3h0.2l0.1-0.1h0.1v-0.1h0.2c0,0,0-0.1,0.1-0.1h0.2v-0.1h0.1c0,0,0-0.1,0.1-0.1h0.2
				c0.1-0.1,0.1-0.1,0.2-0.2h0.1c0,0,0-0.1,0.1-0.1c0.1,0,0.3,0,0.4-0.1v-0.1h0.1c0.1-0.1,0.1-0.1,0.2-0.2h0.1
				c0-0.1,0.1-0.1,0.1-0.2h0.1v0c0.1,0,0.1-0.1,0.2-0.1v-0.1c0.1,0,0.1-0.1,0.2-0.1v-0.1h-0.1c0-0.1,0-0.1-0.2-0.2
				C25.4,89.2,25.1,89.2,24.8,89.2 M22,93.5c-0.1,0.3-0.2,0.2-0.4,0.3v0.1h-0.1c0,0,0,0.1-0.1,0.1h-0.1V94h-0.4v0.1h-0.2v0.1h-0.5
				v-0.1h-0.1v0.1h-0.5v0.1c-0.1,0-0.1,0-0.2,0.1v0.1h-0.1c0,0,0,0.1-0.1,0.1h-0.1c0,0,0,0.1-0.1,0.1h-0.1v0.1H19
				c0,0.1,0.1,0.2,0.1,0.3c0.1,0.1,0.3,0.1,0.4,0.2c0,0,0,0.1,0.1,0.1c0.1,0,0.2,0,0.3,0.1v0.1c0.1,0,0.2,0,0.3,0.1v0.1
				c0.1,0,0.1,0,0.2,0.1v0.1c0.1,0,0.2,0,0.3,0.1c0.1,0.1,0.2,0.3,0.3,0.4c0.1,0,0.1,0.1,0.2,0.1c0,0.2,0,0.4,0.1,0.7
				c-0.1,0-0.1,0.1-0.1,0.1H21V97h-0.1c0,0,0,0.1-0.1,0.1l-0.2,0.1c0,0,0,0.1-0.1,0.1c-0.1,0.1-0.2,0.2-0.4,0.2
				c0,0.2-0.2,0.4-0.2,0.5c0.1,0.2,0.3,0.2,0.6,0.2v0.1h0.1v-0.1c0.3,0,0.6,0,0.8-0.1c0,0,0-0.1,0.1-0.1c0.1,0,0.1,0,0.2-0.1v-0.1
				c0.1,0,0.1,0,0.1,0.1c0.2,0,0.3,0.2,0.4,0.4c0.2,0,0.2,0.1,0.4,0.2v0.1c0.2,0,0.4,0,0.6-0.1v0.1h0.2v0.1h0.1v0.1h0.2v0.1
				c0.1,0,0.1,0,0.2,0.1v0.1h0.2c0,0,0,0.1,0.1,0.1c0.1,0,0.1,0,0.2,0.1V99c0,0,0.1,0,0.1,0.1v0.1c0.1,0,0.1,0.1,0.2,0.1
				c0.1,0.1,0.2,0.4,0.2,0.7c-0.1,0.1-0.1,0.2-0.2,0.2v0.1c-0.1,0-0.2,0-0.3,0.1v0.1H24v0.1h-0.3v0.1h-0.2v0.1h-0.1
				c0,0,0,0.1-0.1,0.1h-0.2c0,0,0,0.1-0.1,0.1H23c0,0.1-0.1,0.1-0.1,0.2c-0.2,0-0.4,0-0.5,0.1v0.1h-0.1c0,0.1-0.1,0.1-0.1,0.2
				c-0.1,0-0.1,0-0.2,0.1v0.1c-0.2,0-0.4,0-0.5,0.1v0.1h-0.1c0,0,0,0.1-0.1,0.1c-0.2,0.1-0.2,0-0.2,0.3c0.1,0,0,0,0.1,0.1h0.2
				c0,0,0,0.1,0.1,0.1h0.1v0.1h0.3v0.1h0.1v0.1c0.1,0,0.2,0,0.3-0.1v0.1h0.2v0.1h0.2v0.1h0.2v0.1c0.1,0,0.2,0.1,0.3,0.1
				c0,0,0,0.1,0.1,0.1h0.1v0.1c0.1,0.1,0.1,0.1,0.2,0.1c0,0.1,0,0.2,0.1,0.3h0.1c0.1,0.3,0,0.6-0.1,0.8c-0.2,0.1-0.2,0.2-0.3,0.3H23
				v0.1c-0.1,0.1-0.1,0-0.2,0.1h-1.2v-0.1c-0.1,0-0.2-0.1-0.3-0.1V104c-0.1,0-0.1,0-0.2-0.1c0,0,0-0.1-0.1-0.1h-0.1
				c0,0,0-0.1-0.1-0.1h-0.1c0-0.1-0.1-0.1-0.1-0.2c-0.1,0-0.1,0-0.2-0.1c0,0,0-0.1-0.1-0.1c-0.1,0-0.2,0-0.3-0.1
				c-0.1-0.1-0.1-0.1-0.2-0.2c-0.2-0.1-0.4-0.2-0.7-0.3c0-0.2-0.1-0.3-0.2-0.6c0.2-0.2,0.4-0.3,0.7-0.5v-0.1c0,0,0.1,0,0.1-0.1v-0.2
				c0,0,0.1,0,0.1-0.1v-0.1c0.1-0.1,0.1-0.1,0.2-0.2V101l0.1-0.1v-0.1h0.1v-0.1h0.1v-0.1h0.1v-0.1h0.1v-0.1c0.1,0,0.1-0.1,0.2-0.1
				v-0.1c0.1-0.2,0.2-0.2,0.2-0.5c-0.1-0.1-0.3-0.1-0.4-0.2c-0.3,0-0.5,0-0.8,0.1v0.1c-0.1,0-0.1-0.1-0.1-0.1c-0.2,0-0.4,0-0.6,0.1
				v0.1h-0.1v0.1c-0.3,0-0.5,0-0.8,0.1v0.1h-0.1c-0.1,0.1-0.2,0.2-0.3,0.3h-0.1c0,0,0,0.1-0.1,0.1h-0.2c0,0,0,0.1-0.1,0.1h-0.1v0.1
				H17v0.1h-0.2v0.1c-0.1,0.1-0.3,0.2-0.4,0.3v0.1c0,0-0.1,0-0.1,0.1v0.1h-0.1v0.1h-0.1v0.2h-0.1c-0.1,0.3,0.2,1.1,0.3,1.3
				c0.1,0.1,0.1,0.1,0.2,0.2c0,0,0,0.1,0.1,0.1c0.1,0,0.2,0,0.3,0.1c0,0,0,0.1,0.1,0.1h0.2v0.1c0.1,0,0.1,0,0.2,0.1v0.1
				c0.3,0.1,0.4,0.3,0.7,0.4c0,0.2,0,0.1,0.2,0.2c0,0.1,0,0.1,0.1,0.2h0.1v0.1h0.1c0,0.2,0.1,0.4,0.1,0.6h-0.1c0,0.1,0,0.2-0.1,0.3
				c0,0-0.1,0-0.1,0.1v0.1c-0.1,0.1-0.3,0.1-0.4,0.2v0.1c-0.1,0-0.1,0-0.2,0.1v0.1c-0.2,0.1-0.3-0.2-0.4-0.2h-0.1v-0.1h-0.1v-0.1
				h-0.2v-0.1h-0.2v-0.1c-0.1,0-0.1,0-0.2-0.1c-0.1-0.1-0.1-0.1-0.2-0.2h-0.1c0-0.1-0.1-0.1-0.1-0.2H16v-0.1
				c-0.1-0.1-0.1-0.1-0.2-0.2c0,0,0-0.1-0.1-0.1c-0.1,0-0.2-0.1-0.3-0.1c0,0,0-0.1-0.1-0.1c-0.1,0-0.1,0-0.2-0.1v-0.1
				c-0.1,0-0.2-0.1-0.3-0.1v-0.1h-0.2v-0.1h-0.1v-0.1h-0.2v-0.1h-0.2v-0.1H14v-0.1h-0.1c-0.1,0,0,0-0.1,0.1c-0.1,0-0.4-0.1-0.5-0.1
				c-0.1-0.1-0.1-0.2-0.2-0.4h-0.1V103c-0.1-0.1-0.3-0.3-0.2-0.5c0.1-0.2,0.1-0.3,0.2-0.5c0.1-0.1,0.1-0.1,0.2-0.1
				c0-0.1,0-0.1,0.1-0.2h0.1v-0.2h0.1c0.2-0.2,0.3-0.2,0.7-0.2v-0.1h0.2c0,0,0-0.1,0.1-0.1h0.1V101h0.1c0.1-0.1,0.1-0.1,0.2-0.2h0.1
				c0-0.1,0-0.1,0.1-0.2c0.1,0,0.1-0.1,0.2-0.1v-0.1c0,0,0.1,0,0.1-0.1v-0.1c0.1-0.1,0.3-0.2,0.4-0.3v-0.1c0.1-0.1,0.2-0.1,0.3-0.2
				c0-0.1,0-0.1,0.1-0.2l0.4-0.3v-0.1c0.1-0.1,0.2-0.1,0.3-0.2v-0.1c0,0,0.1,0,0.1-0.1v-0.1c0.1-0.2,0.8-0.8,0.7-1
				c-0.1-0.3-0.2-0.3-0.5-0.3c-0.1,0.1-0.2,0.2-0.3,0.3v0.1h-0.1c-0.1,0.1-0.1,0.2-0.2,0.3h-0.3c-0.1-0.1-0.2-0.1-0.3-0.2
				c0,0,0-0.1-0.1-0.1h-0.1c-0.1-0.1-0.1-0.1-0.2-0.2h-0.1v-0.1c0,0-0.1,0-0.1-0.1V97C15,97,15,97,14.9,96.9v-0.1h-0.1
				c0-0.1,0-0.1-0.1-0.2h-0.1c0-0.1,0-0.3-0.1-0.4h-0.1v-0.1c0,0-0.1,0-0.1-0.1v-0.2h-0.1c0-0.2,0.1-0.4,0.1-0.5h-0.1v-0.2h-0.1
				c0-0.3,0-0.5-0.1-0.8h0.1v-0.6h0.1v-0.3h0.1v-0.4h0.1V93h0.2c0.1,0.2,0.3,0.2,0.7,0.2c0.1-0.2,0.5-0.4,0.7-0.5
				c0.2,0,0.4,0,0.5-0.1v-0.1h0.2v-0.1h0.2v-0.1c0.1,0,0.3,0,0.4-0.1v-0.1h0.1c0,0,0-0.1,0.1-0.1h0.3v-0.1c0.1,0,0.3,0,0.4-0.1v-0.1
				h0.2v-0.1h0.3v-0.1h0.1V92c0.4-0.1,0.8-0.1,1.3-0.2v-0.1h0.2v-0.1c0.2-0.1,0.2-0.1,0.5-0.2c0.2,0.3,0.7,0.3,1.3,0.3
				c0,0.1,0.1,0.1,0.1,0.1v0.1c0.1,0,0.1,0.1,0.2,0.1v0.1h0.1c0.1,0.1,0,0.1,0.1,0.2c0,0.2-0.4,0.9-0.5,1H22z M17.7,94.6
				c0.1-0.2,0-0.1,0.2-0.2c0,0,0-0.1,0.1-0.1H18v-0.1h0.2v-0.1c0.1,0,0.1,0,0.2-0.1v-0.1h0.1c0,0,0-0.1,0.1-0.1h0.1V94
				c0.1,0,0.1,0,0.2-0.1v-0.1h0.1c0.1-0.2,0.3-0.2,0.5-0.3c0-0.1,0.1-0.1,0.1-0.2h0.1v-0.1c0.2-0.1,0.2-0.2,0.2-0.5
				c-0.1,0-0.1-0.1-0.2-0.2c-0.9,0.1-1.6,0.2-2.3,0.4h-0.5V93c-0.3,0-0.6,0.1-0.9,0.1c0,0.1-0.1,0.3-0.1,0.5h0.1v0.2H16
				c0.1,0.1,0.3,0.2,0.4,0.3c0.1,0.1,0.1,0.3,0.2,0.4c0.1,0.1,0.2,0.2,0.3,0.3h0.5v-0.1C17.5,94.6,17.5,94.6,17.7,94.6 M24.5,115.2
				c0,0.1,0,0.2,0.1,0.3c0,0-0.1,0-0.1,0.2l0.1,0.1c0,0-0.1,0-0.1,0.1h0.1v0.2c-0.1,0.1-0.2,0.2-0.3,0.3h-1c0,0,0-0.1-0.2-0.1v0.1
				h-1v-0.1h-0.2v-0.1h-0.3v-0.1h-0.1v-0.1h-0.3V116c-0.1,0-0.1,0-0.2-0.1v-0.1h-0.1c-0.1-0.1-0.1-0.2-0.2-0.3c-0.1,0-0.1,0-0.2-0.1
				v-0.1c-0.3-0.1-0.5,0.1-0.7,0.1c0,0,0-0.1-0.1-0.1c0.1-0.1,0.1,0,0.1-0.2H20c0.1-0.1,0.1-0.1,0.1-0.3c-0.1-0.1,0-0.1-0.1-0.2
				h-0.1v-0.1h-0.1v-0.1c-0.1-0.1-0.1-0.1-0.2-0.2c0-0.1-0.1-0.2-0.1-0.3c0,0-0.1,0-0.1-0.1c0-0.1,0-0.1-0.1-0.2h-0.1v-0.3h-0.1
				c-0.2-0.5,0-0.6-0.8-0.5c-0.2,0.2-0.3,0-0.5,0.1c0,0,0,0.1-0.1,0.1h-0.3v0.1h-0.2v0.1h-0.1v0.1c-0.2,0-0.4,0-0.5,0.1v0.1h-0.2
				v0.1h-0.2v0.1h-0.1v0.1c-0.1,0-0.3,0-0.4,0.1v0.1h-0.1v0.1h-0.2v0.1c-0.3,0.1-0.4,0-0.4,0.3c0.1,0.1,0.1,0.3,0.2,0.4h0.1v0.1
				c0.1,0.1,0.1,0.1,0.2,0.2c0,0.1,0,0.2,0.1,0.3h0.1c0,0.2,0,0.4-0.1,0.5h0.1v0.1h-0.1c0,0.1,0,0.2-0.1,0.3h-0.1v0.3
				c0,0-0.1,0-0.1,0.1v0.1h-0.1c0,0.2,0,0.3,0.1,0.5c0.6,0.1,1.1-0.2,1.5-0.4c0.1,0,0.2,0,0.3-0.1c0,0,0-0.1,0.1-0.1
				c0.1-0.1,0.1,0.1,0.2-0.2c0.1-0.1,0,0,0.1-0.2h0.1c-0.1-0.3-0.2-0.7-0.3-1c0,0-0.1,0-0.1-0.1c0-0.1,0-0.1-0.1-0.2H17
				c0-0.1,0-0.1-0.1-0.2c0.1,0,0.1,0,0.3-0.1v0.1h0.2v0.1h0.1v0.1h0.1v0.1h0.1v0.1h0.1v0.1h0.1v0.1c0.2,0.1,0.3,0,0.4,0.2
				c0.2,0.2,0,0.4,0.3,0.6c0.1,0.1,0.3,0.1,0.5,0.2v0.1h0.4c0.1,0,0.3,0.1,0.4,0.2c0,0.3,0.1,0.6,0.1,1c-0.1,0.1-0.1,0.1-0.2,0.2
				c0,0.1,0,0.1-0.1,0.2c-0.1,0-0.1,0-0.2,0.1c0,0.1,0,0.1-0.1,0.2c-0.1,0-0.2,0-0.3,0.1c0,0.1-0.1,0.1-0.1,0.2H19
				c-0.1,0.1-0.1,0.1-0.2,0.2h-0.1v0.1h-0.1c0,0.1,0,0.3-0.1,0.4c0.1,0,0.1,0,0.2,0.1v-0.1h0.3v-0.1c0.1,0,0.1,0,0.2-0.1
				c0,0,0-0.1,0.1-0.1c0.1-0.1,0.2-0.1,0.3-0.1v0.1c0.1,0,0.2,0,0.3,0.1v0.1h0.1v0.1h0.2v0.1h0.3v0.1H21v0.1h0.2c0,0,0,0.1,0.1,0.1
				h0.1c0,0,0,0.1,0.1,0.1c0.2,0.2,0.4,0,0.4,0.4c-0.1,0.1-0.1,0.1-0.1,0.2c0,0-0.1,0-0.1,0.1v0.1h-0.1c0,0,0,0.1-0.1,0.1h-0.1
				c-0.2,0.1-0.3,0-0.6,0.1v0.1h-0.4v0.1h-0.3v0.1h-0.4v0.1h-0.5v0.1H19v0.1h-0.2v0.1h-0.2v0.1h-0.3v0.1c-0.3,0-0.5,0-0.8,0.1v0.1
				h-0.3v0.1h-0.3v0.1h-0.1v0.1c-0.2,0-0.5,0.1-0.7,0.1v0.1H16v0.1h-0.2c0,0,0,0.1-0.1,0.1h-0.1c0,0,0,0.1-0.1,0.1h-0.1v0.1h-0.2
				c0,0,0,0.1-0.1,0.1c-0.1,0-0.2,0.1-0.3,0.1c0,0.1-0.1,0.1-0.1,0.2h-0.2v0.1h-0.1c0,0,0,0.1-0.1,0.1h-0.1v0.1h-0.2
				c-0.1,0.1-0.1,0.1-0.2,0.2h-0.2v0.1h-0.1v0.1h-0.2v0.1h-0.1c-0.1,0.1-0.1,0.1-0.2,0.2h-0.1c0,0,0,0.1-0.1,0.1H13
				c-0.1,0.1-0.2,0.2-0.3,0.3h-0.1c0,0,0,0.1-0.1,0.1h-0.1c0,0,0,0.1-0.1,0.1c-0.1,0-0.1,0.1-0.2,0.1v0.1h-0.1
				c-0.1,0.1-0.1,0.1-0.2,0.2h-0.1c0,0.1-0.1,0.1-0.1,0.2c-0.1,0.1-0.2,0.2-0.3,0.3c0,0.1,0,0.1-0.1,0.2h-0.1c0,0.1-0.1,0.1-0.1,0.2
				c-0.2,0.2-0.5,0.4-0.6,0.8c0.1,0,0.2,0,0.3,0.1V125h0.2v-0.1c0.1,0,0.1,0,0.2-0.1v-0.1h0.2v-0.1h0.1v-0.1h0.2c0,0,0-0.1,0.1-0.1
				h0.1v-0.1h0.2v-0.1c0.1,0,0.1,0,0.2-0.1v-0.1h0.1v-0.1h0.2v-0.1c0.1,0,0.1,0,0.2-0.1c0,0,0-0.1,0.1-0.1h0.2v-0.1h0.1V124H13v-0.1
				c0.1,0,0.1,0,0.2-0.1v-0.1c0.1,0,0.1,0,0.2-0.1v-0.1h0.1v-0.1h0.1v-0.1h0.1v-0.1h0.1v-0.1H14v-0.1c0.1,0,0.1,0,0.2-0.1v-0.1h0.1
				v-0.1h0.2c0,0,0-0.1,0.1-0.1h0.2v-0.1h0.1v-0.1H15c0,0,0-0.1,0.1-0.1h0.1v-0.1c0.2,0,0.3-0.1,0.5-0.1v-0.1c0.1,0,0.1,0,0.2-0.1
				v-0.1c0.1,0,0.2,0,0.3-0.1v-0.1c0.1,0,0.3,0,0.4-0.1v-0.1h0.1c0,0,0-0.1,0.1-0.1h0.1c0-0.1,0.1-0.1,0.1-0.2c0,0,0.1,0,0.1-0.1
				c0-0.1,0-0.1,0.1-0.2h0.4v0.1c0.2,0,0.4,0,0.6-0.1v-0.1h0.2v-0.1c0.1,0,0.3,0,0.4-0.1v-0.1H19v-0.1c0.1,0,0.1,0,0.2-0.1v-0.1h0.3
				v-0.1h0.1v-0.1h0.2v-0.1H20v-0.1c0.1,0,0.3,0,0.4-0.1v-0.1c0.1,0,0.3,0,0.4-0.1v-0.1H21V121c0.1,0,0.3,0,0.4-0.1v-0.1h0.3v-0.1
				h0.3v-0.1h0.5v0H23v-0.1h0.2v-0.1c0.2,0,0.4,0,0.5,0.1h0.7v0.1h0.1c0.1,0,0.1,0,0.2-0.1v0.1c0.1,0,0.1,0,0.2-0.1
				c0,0,0.5,0.3,0.5,0.4v0.1l0.1,0.1h0.1c0,0.1,0.1,0.1,0.1,0.2h0.1c0,0.1,0.1,0.1,0.1,0.2c0.1,0,0.3,0.1,0.4,0.2v0.1
				c0.1,0,0.7,0.5,0.7,0.7v0.3c-0.1,0.1-0.2,0.1-0.3,0.2v0.2h-0.1c0,0.1,0,0.1-0.1,0.2h-0.1v0.1c-0.2,0.1-0.4,0.1-0.6,0.2
				c-0.1,0.1-0.3,0.3-0.4,0.4c-0.1,0.1-0.3,0.1-0.5,0.1c0,0,0-0.1-0.1-0.1v0.1l-0.7,0.1v0.1h-0.1v0.1c-0.1,0-0.2,0-0.3,0.1
				c-0.1,0.1-0.2,0.2-0.3,0.3c-0.1,0-0.1,0-0.2,0.1v0.1c-0.3,0-0.6,0-0.9,0.1v0.1h-0.1v-0.1c-0.1,0-0.1,0-0.2,0.1v-0.1
				c-0.1,0-0.3,0.1-0.5,0.1h-0.3c0,0,0-0.1-0.1-0.1v0.1h-0.1v0.1h-0.8V125c-0.2,0-0.4,0-0.5,0.1c0,0.1-0.1,0.1-0.1,0.2H20v0.1H20
				v0.2c-0.1,0.3,0,0.7,0,1.1c0.1,0.1,0.2,0.1,0.2,0.2c0.3-0.1,0.6-0.2,0.9-0.3v-0.1h0.1c0,0,0-0.1,0.1-0.1h0.2v-0.1
				c0.1,0,0.2,0,0.3-0.1v-0.1h0.1v-0.1H22v-0.1h0.1v-0.1h0.1c0-0.1,0.1-0.1,0.1-0.2h0.1c0-0.1,0-0.1,0.1-0.2c0,0,0.1,0,0.1-0.1
				c0-0.1,0-0.1,0.1-0.2h0.2v-0.1c0.1,0,0.3,0.1,0.4,0.1v0.1h0.1c0,0,0,0.1,0.1,0.1h0.1v0.1c0.2,0,0.4,0,0.7,0.1v0.1h0.1
				c0.1,0.1,0.1,0.1,0.2,0.2h0.1v0.1h0.1c0,0,0,0.1,0.1,0.1h0.1v0.1c0.1,0.1,0.1,0,0.1,0.2c-0.1,0.1,0,0.1-0.1,0.2
				c0,0-0.1,0-0.1,0.1v0.1c-0.1,0-0.1,0-0.2,0.1c0,0.1-0.1,0.1-0.1,0.2c-0.1,0-0.2,0-0.3,0.1c0,0,0,0.1-0.1,0.1H24
				c-0.1,0.2-0.3,0.5-0.4,0.7v0.2h-0.1v0.1h-0.1v0.1c0,0-0.1,0-0.1,0.1v0.4c0.3,0.1,0.6,0.1,0.9,0.2c0,0.1,0.1,0.1,0.1,0.2h0.1v0.1
				h0.1c0,0,0,0.1,0.1,0.1h0.2v0.1c0.1,0,0.2,0,0.3,0.1v0.1c0.1,0.1,0.2,0.1,0.3,0.2v0.1c0.1,0,0.1,0,0.2,0.1c0,0.1,0,0.1,0.1,0.2
				c0,0,0.1,0,0.1,0.1v0.3c-0.1,0.1,0,0-0.1,0.1c-0.3,0.1-0.5,0.2-0.8,0.3c0,0.1,0,0.2-0.1,0.3c0.1,0.1,0.3,0.2,0.4,0.3
				c0,0,0,0.1,0.1,0.1h0.1v0.1c0.1,0,0.2,0,0.3,0.1v0.1c0.4-0.1,0.7-0.2,1.1-0.3v0.1h0.1v0.1H27v0.1c0.1,0,0.2,0,0.3-0.1v0.1h0.1
				v0.1c0.2,0,0.3,0,0.5,0.1v0.1H28v0.1c0.1,0,0.2,0,0.3,0.1v0.1h0.2v0.1c0.1,0,0.2,0.1,0.3,0.1v0.1c0.1,0,0.2,0,0.3,0.1v0.1
				l0.3,0.2v0.1c0,0,0.1,0,0.1,0.1v0.1h0.1c0,0.1-0.1,0.5-0.2,0.5h-0.1v0.3h-0.1c0,0.1-0.1,0.1-0.1,0.2h-0.1c0,0,0,0.1-0.1,0.1H29
				l-0.3,0.3h-0.1v0.1h-0.1v0.1h-0.2v0.1h-0.2v0.1c-0.1,0-0.1,0-0.2,0.1v0.1c-0.2,0-0.3,0.1-0.5,0.1v0.1h-0.1v0.1h-0.3v0.1h-0.1
				c0,0,0,0.1-0.1,0.1h-0.1v0.1c-0.1,0-0.3,0-0.4,0.1v0.1c-0.1,0-0.1,0-0.2,0.1v0.1h-0.1v0.1h-0.2v0.1h-0.2v0.1h-0.3v0.1
				c-0.1,0-0.1,0-0.2,0.1v0.1H25c0,0,0,0.1-0.1,0.1c-0.2,0-0.4,0-0.5,0.1c0,0,0,0.1-0.1,0.1c-0.1,0.1-0.2,0.2-0.3,0.3h-0.1v0.1h-0.3
				v0.1h-0.2v0.1h-0.1v0.1h-0.2v0.1h-0.1v0.1c-0.2,0-0.3,0-0.5,0.1v0.1h-0.2v0.1h-0.2v0.1H22v0.1h-0.4v0.1h-0.2v0.1h-0.3v0.1h-0.4
				v0.1h-0.1v0.1h-0.3v0.1c-0.1,0-0.2-0.1-0.4-0.1v0.1c-0.2,0-0.4,0.1-0.5,0.1v0.1c0,0-0.1,0-0.1-0.1v0.1h-0.3v0.1h-0.4v0.1h-0.4
				v0.1h-0.2v0.1h-0.4v0.1c-0.1,0-0.2,0-0.3-0.1v0.1h-0.8v-0.1h-0.2v-0.1h-0.3v-0.1h-0.1c-0.1-0.1-0.1-0.1-0.2-0.2h-0.1
				c-0.1-0.1-0.1-0.1-0.2-0.2h-0.1v-0.1c-0.1,0-0.1-0.1-0.2-0.1v-0.1c0,0-0.1,0-0.1-0.1v-0.1c0,0-0.1,0-0.1-0.1v-0.1
				c0,0-0.1,0-0.1-0.1c0-0.2-0.1-0.3-0.1-0.5h-0.1v-0.1h-0.1v-1c-0.1-0.3-0.1-0.5-0.1-0.9c0-0.1,0-0.3,0.1-0.4h-0.1v-0.3h-0.1
				c0-0.2,0-0.4,0.1-0.6c0-0.6,0-1.1-0.1-1.6c-0.1-0.1-0.2-0.1-0.3-0.1v0.1c-0.1,0-0.2,0-0.3,0.1v0.1H14v0.1h-0.1c0,0,0,0.1-0.1,0.1
				h-0.1v0.1h-0.1v0.1h-0.2c-0.1,0.1-0.1,0.1-0.2,0.2c-0.1,0.1-0.3,0.1-0.4,0.3c-0.1,0.1-0.2,0.4-0.2,0.7h0.1v0.2h0.1
				c0,0.4,0,0.8,0.1,1.1l0.1,0.4h-0.1c0,0.1,0,0.1-0.1,0.2c-0.2,0-0.1,0.1-0.2,0.1h-0.2c0,0,0,0.1-0.1,0.1c-0.1,0-0.3-0.2-0.6-0.1
				v0.1h-0.2v0.1h-0.2v0.1c-0.2,0-0.4,0.1-0.7,0.1v-0.1c-0.2-0.1-0.3-0.2-0.4-0.3V134h-0.1c0,0,0-0.1-0.1-0.1H10v-0.1
				c-0.1-0.1-0.2-0.2-0.4-0.2v-0.1c-0.1,0-0.1,0-0.2,0.1v0.1c-0.2,0-0.1,0.1-0.3,0.2v0.1c-0.1,0-0.1,0-0.2,0.1
				c-0.1,0.1-0.1,0.2-0.2,0.3H8.7v0.1c-0.4,0.1-0.1,0.1-0.2,0.4H8.4c0,0.1-0.1,0.1-0.1,0.2H8.2c0,0,0,0.1-0.1,0.1H7.9
				c-0.1-0.1-0.2-0.2-0.4-0.2c0-0.1,0-0.2-0.1-0.3H7.4v-0.1H7.3c-0.1-0.1,0-0.1-0.2-0.1v-0.1c-0.1,0-0.1-0.1-0.2-0.1v-0.1
				c-0.3-0.2-0.5-0.1-0.4-0.7c0.1-0.1,0,0,0.1-0.1c0.1-0.1,0.3-0.2,0.4-0.3h0.3V133h0.2v-0.1h0.2c0,0,0-0.1,0.1-0.1
				c0.1,0,0.2-0.1,0.3-0.1c0-0.1,0.1-0.1,0.1-0.2c0.1,0,0.1,0,0.2-0.1l0.1-0.1c0.1,0,0.1,0,0.2-0.1c0,0,0-0.1,0.1-0.1
				c0.1,0,0.2-0.1,0.3-0.1c0,0,0-0.1,0.1-0.1h0.1V132h0.1v-0.1h0.2c0-0.1,0.1-0.1,0.1-0.2h0.1c0,0,0.1-0.1,0.1-0.1v-0.1
				c0.1,0,0.2,0,0.3-0.1v-0.1h0.1c0,0,0-0.1,0.1-0.1c0.1,0,0.2-0.1,0.3-0.1v-0.1h0.2v-0.1h0.1v-0.1c0.2-0.1,0.4-0.1,0.4-0.4h0.1
				c0-0.1,0-0.1-0.1-0.1v-0.3h-0.1v-0.4h-0.1v-0.5h-0.1V129h-0.1V129c0,0,0.1,0,0.1-0.1h-0.1v-0.2h-0.1v-0.2c0,0-0.1-0.1-0.2-0.1
				v-0.1c-0.1,0-0.1-0.1-0.2-0.1v-0.1c0,0-0.1,0-0.1-0.1c-0.1-0.1-0.1-0.2-0.1-0.4c0.3,0,0.9,0.1,1,0.2c0.1,0.1,0.1,0.2,0.2,0.3
				c0.1,0,0.1,0.1,0.2,0.1v0.1c0.1,0,0.1,0.1,0.2,0.1v0.1h0.1c0.1,0.3,0.1,0.6,0.2,0.9c0,0,0.1,0,0.1,0.1v0.3h0.1v0.2h0.1
				c0,0.1,0,0.1,0.1,0.2c0.4,0,0.8,0,1-0.2c0,0,0-0.1,0.1-0.1h0.1v-0.1h0.1v-0.1h0.2v-0.1c0.1,0,0.1,0,0.2-0.1v-0.1
				c0.2-0.1,0.3,0,0.4-0.3c0.2-0.2,0-0.4,0.1-0.8c0.1-0.3,0.1-1.1,0.1-1.6v-0.7h0.1v-0.9h0.1c0.1-0.3,0-0.6,0-0.9
				c-0.1,0-0.1,0-0.2-0.1v-0.1c-0.2,0-0.3,0-0.5,0.1c0,0.1-0.1,0.1-0.1,0.2c-0.1,0-0.1,0-0.2,0.1v0.1h-0.2c0,0,0,0.1-0.1,0.1
				c-0.1,0-0.2,0.1-0.3,0.1c0,0.1-0.1,0.1-0.1,0.2c-0.1,0-0.1,0-0.2,0.1c0,0,0,0.1-0.1,0.1c-0.1,0-0.1,0-0.2,0.1v0.1h-0.1v0.1h-0.1
				l-0.1,0.1h-0.1c0,0,0,0.1-0.1,0.1c-0.1,0-0.2,0-0.2,0.1c0,0,0,0.1-0.1,0.1h-0.2c0,0,0,0.1-0.1,0.1h-0.1c0,0,0,0.1-0.1,0.1h-0.1
				c0,0,0,0.1-0.1,0.1c-0.2,0.1-0.4,0.1-0.7,0.2c0,0,0,0.1-0.1,0.1h-0.1c-0.1,0.1-0.2,0.2-0.3,0.3c-0.2,0.1-0.3,0.1-0.5,0.2
				c0,0,0,0.1-0.1,0.1c-0.1,0-0.1,0-0.2,0.1c0,0,0,0.1-0.1,0.1H9.4c0,0.1-0.1,0.1-0.1,0.2H9.1v0.1c-0.1,0-0.2,0-0.2,0.1v0.1
				c-0.1,0-0.2,0-0.3,0.1v0.1c-0.1,0-0.2,0-0.3,0.1c0,0,0,0.1-0.1,0.1H8.1v0.1c-0.1,0-0.1,0-0.2,0.1v-0.1H7.8v-0.1
				c-0.2-0.1-0.3-0.9-0.3-1.3c0.2-0.1,0-0.2,0.3-0.2v-0.1h0.2c0-0.2,0-0.4,0.1-0.7c0.3,0,0.6-0.1,0.8-0.2c0.1-0.1,0.1-0.1,0.2-0.2H9
				l0.1-0.1h0.1V125h0.1c0,0,0-0.1,0.1-0.1h0.1v-0.1h0.1c0.1-0.1,0.2-0.2,0.3-0.3h0.2c0,0,0-0.1,0.1-0.1c0.1,0,0.2-0.1,0.3-0.1
				l0.1-0.1h0.1c0.1-0.1,0.1-0.1,0.2-0.2h0.1v-0.1H11l0.1-0.1h0.1c0.1-0.1,0.3-0.3,0.4-0.4h0.1c0,0,0-0.1,0.1-0.1h0.1
				c0.1-0.1,0.2-0.2,0.3-0.3c0.1,0,0.2,0,0.3-0.1c0.1-0.1,0.1-0.1,0.2-0.2h0.1c0,0,0-0.1,0.1-0.1c0.1,0,0.2-0.1,0.3-0.1
				c0,0,0-0.1,0.1-0.1h0.1c0.1-0.1,0.1-0.1,0.2-0.2h0.1c0,0,0-0.1,0.1-0.1c0.1,0,0.2,0,0.3-0.1v-0.1c0.1-0.1,0.3-0.3,0.4-0.4v-0.2
				c-0.1-0.1-0.1-0.2-0.2-0.4c0.1,0,0.1-0.1,0.1-0.1h0.1v-0.1h0.3v-0.1c0.1,0,0.1,0,0.2-0.1c0,0,0-0.1,0.1-0.1
				c0.1,0,0.2-0.1,0.3-0.1c0.1-0.1,0.3-0.2,0.4-0.3v-0.3c0.3,0,0.7-0.3,0.9-0.5c0.1-0.1,0.1-0.2,0.2-0.3h0.1c0,0,0-0.1,0.1-0.1H17
				l0.1-0.1c0-0.1,0-0.1,0.1-0.2c0.1,0,0.1-0.1,0.2-0.1v-0.3c-0.1,0-0.3-0.1-0.5-0.1c-0.1,0.1-0.4,0-0.6,0.1c-0.2,0-0.4,0-0.5,0.1
				v-0.1h-0.4v-0.1H15v-0.1h-0.1v0.1c-0.1,0-0.2,0-0.3,0.1c0,0.1-0.1,0.1-0.1,0.2c-0.2,0-0.3,0.1-0.5,0.1c-0.1-0.1-0.2-0.2-0.3-0.3
				c-0.1-0.1,0-0.3-0.1-0.4c-0.1-0.1-0.1-0.1-0.2-0.2v-0.2h-0.1c-0.1-0.2-0.1-0.3-0.2-0.5c-0.1,0-0.1,0-0.2-0.1v-0.7
				c0,0-0.1,0-0.1-0.1h0.1c0.1-0.3,0-0.6,0-0.9c-0.1,0-0.2,0-0.3-0.1v0.1c-0.2,0.1-0.4,0.1-0.6,0.2c-0.1,0.2-0.2,0.2-0.4,0.3v0.1
				h-0.1c0,0,0,0.1-0.1,0.1h-0.1c-0.1,0.1-0.3,0.3-0.4,0.4c-0.1,0-0.1,0-0.2,0.1c0,0,0,0.1-0.1,0.1c-0.1,0.1-0.1,0.1-0.2,0.2v0.1
				c0,0-0.1,0-0.1,0.1c0,0.1,0,0.1-0.1,0.2h-0.1v0.1c0,0-0.1,0-0.1,0.1v0.1c-0.1,0-0.1,0.1-0.2,0.1v0.2h-0.1v0.2h-0.1
				c0,0.1,0,0.1-0.1,0.2H10c0,0.1,0.1,0.1,0.1,0.1v0.1H10v0.1H10v0.2c0,0-0.1,0-0.1,0.1v0.1H9.8c0,0.1,0,0.1-0.1,0.2H9.7v0.2
				c-0.1,0-0.1,0.1-0.2,0.1v0.1c0,0-0.1,0-0.1,0.1v0.1c0,0-0.1,0-0.1,0.1v0.1H9.3c0,0.2,0,0.4-0.1,0.6H9.1v0.2H9.1v0.5H9
				c0,0.2,0,0.4-0.1,0.7H9v0.2c0.1,0.1,0.2,0.1,0.2,0.2v0.1h0.1v0.2h0.1v0.2h0.1v0.5h0.1c0,0.1,0,0.2,0.1,0.3
				c0.1,0.1,0.1,0.1,0.2,0.2v0.4H9.7c0,0.2,0.1,0.4,0.1,0.7c-0.2,0-0.4,0-0.6-0.1c-0.1-0.1-0.1-0.1-0.2-0.2l-0.3-0.1
				c0-0.1-0.1-0.1-0.1-0.2H8.6v-0.1c-0.1-0.1-0.1-0.1-0.2-0.2c-0.1-0.1-0.2-0.4-0.3-0.6H8c-0.1-0.1-0.1-0.1-0.2-0.2H7.7
				c0-0.1-0.1-0.1-0.1-0.2H7.6v-0.3c-0.2-0.3,0.1-0.8,0.1-1H7.6c0-0.1,0-0.2,0-0.3H7.5c0,0,0-0.1,0.1-0.1H7.5v-0.3H7.4v-0.4H7.3
				c0-0.3,0-0.5-0.1-0.8c-0.1-0.5-0.1-1.9,0.1-2.4v-0.3h0.1v-0.2h0.1V116c0,0,0.1,0,0.1-0.1v-0.6h0.1v-0.2h0.1V115
				c0,0,0.1,0,0.1-0.1v-0.1h0.1v-0.3h0.1c0-0.1,0-0.1,0.1-0.2h0.1v-0.2c0,0,0.1,0,0.1-0.1V114h0.1v-0.2c0,0,0.1,0,0.1-0.1
				c0-0.1,0-0.1,0.1-0.2c0,0,0.1,0,0.1-0.1c0-0.1,0-0.2,0.1-0.3h0.1v-0.1h0.1V113l0.1-0.1c0-0.1,0-0.1,0.1-0.2c0,0,0.1,0,0.1-0.1
				v-0.1c0,0,0.1,0,0.1-0.1c0.1-0.1,0.2-0.2,0.2-0.3h0.1c0,0,0-0.1,0.1-0.1h0.2c0.1,0.1,0.1,0.1,0.1,0.2c-0.4,0.4,0.1,0.9-0.1,1.4
				H9.6v0.1c-0.1,0-0.1,0.1-0.2,0.1c0,0.1,0,0.2-0.1,0.3H9.3v0.1c0,0-0.1,0-0.1,0.1v0.2H9.1v0.2c-0.1,0.3-0.1,0.4-0.1,0.7h0.3v-0.1
				c0.3-0.1,0.4-0.3,0.6-0.5c0.1,0,0.1,0,0.2-0.1v-0.1h0.1c0.1-0.2,0.3-0.2,0.3-0.4c0.2,0,0.2-0.1,0.4-0.2h0.1v-0.1h0.1V114h0.1V114
				h0.1v-0.1h0.2c0,0,0-0.1,0.1-0.1h0.1v-0.1h0.2v-0.1H12v-0.1c0.1,0,0.2,0,0.3-0.1v-0.1h0.2v-0.1c0.1,0,0.1,0,0.2-0.1v-0.1h0.1
				v-0.1h0.1v-0.1c0.1,0,0.2-0.1,0.3-0.1v-0.1c0.1,0,0.3,0,0.4-0.1V113h0.2v-0.1H14v-0.1h0.2v-0.1c0.1,0,0.1,0,0.2-0.1v-0.1h0.3
				v-0.1h0.1v-0.1c0.1,0,0.2,0,0.3-0.1v-0.1h0.2v-0.1c0.2-0.1,0.4-0.1,0.6-0.2c0-0.1,0.1-0.2,0.1-0.3h0.1c0,0,0-0.1,0.1-0.1
				c0.1,0,0.1,0,0.2-0.1c0.1-0.1,0.1-0.1,0.2-0.2h0.1c0-0.1,0.1-0.1,0.1-0.2H17c0.1-0.1,0.2-0.3,0.3-0.4c-0.1-0.3-0.2-0.4-0.4-0.6
				l-0.1-0.1c-0.1,0-0.1,0-0.2-0.1c-0.1-0.1-0.2-0.2-0.3-0.3h-0.1c-0.1-0.1-0.2-0.2-0.3-0.3c-0.1,0-0.2-0.1-0.3-0.1v-0.1
				c-0.1-0.1-0.1-0.1-0.2-0.2V109c0.1,0,0.9-0.1,1,0v0.1h0.2v0.1h0.1v0.1h0.2v0.1c0.1,0,0.1,0,0.2,0.1v0.1h0.2v0.1h0.1v0.1h0.2v0.1
				h0.1v0.1h0.1c0,0,0,0.1,0.1,0.1c0.1,0,0.2,0,0.3,0.1c0,0,0,0.1,0.1,0.1h0.1c0,0,0,0.1,0.1,0.1h0.1c0,0,0,0.1,0.1,0.1
				c0.2,0.1,0.3,0.1,0.5,0.2c0.1,0.1,0.1,0.2,0.2,0.3c0.2,0.2,0.4,0.4,0.6,0.6v0.1h0.1c0.1,0.2-0.1,0.1,0.2,0.2v0.1h0.2v0.1
				c0.1,0,0,0,0.1-0.1h0.4v0.1H21c0,0,0-0.1,0.1-0.1c0.2,0,0.3,0,0.5-0.1v0.1c0.3,0,0.5,0,0.8-0.1c0.1,0,0.2,0,0.3,0.1v-0.1
				c0.3,0,0.5,0,0.8-0.1v0.1c0.3,0.1,0.6-0.1,0.8-0.1h0.4c0,0,0-0.1,0.1-0.1v0.1h0.8v0.1h0.7v0.1h0.3v0.1c0.1,0,0.2-0.1,0.2-0.1
				c0.2,0,0.3,0,0.5,0.1v0.1c0.2,0.1,0.3,0.1,0.5,0.2c0,0,0,0.1,0.1,0.1c0.1,0,0.2,0.1,0.3,0.1c0,0.1,0.1,0.1,0.1,0.2
				c0.3,0.3,0.5,0.4,0.5,1h-0.1v0.2c0,0-0.1,0-0.1,0.1v0.2c0,0-0.1,0-0.1,0.1v0.1h-0.1c0,0.1,0,0.3-0.1,0.4h-0.1
				c0,0.1,0,0.1-0.1,0.2c0,0-0.1,0-0.1,0.1c-0.1,0.1-0.3,0.3-0.4,0.4h-0.1c0,0,0,0.1-0.1,0.1h-0.2c-0.2,0.1-0.4,0-0.6,0.1v0.1
				c-0.3,0.1-0.5-0.1-0.7-0.2c-0.2,0-0.3,0-0.5-0.1v-0.1h-0.2c0,0,0-0.1-0.1-0.1h-0.2v-0.1H25v-0.1h-0.2v-0.1h-0.3v0.1h-0.3v0.1
				h-0.1v0.1c-0.2,0.1-0.2,0.1-0.3,0.4C24.1,114.9,24.2,115.1,24.5,115.2 M26,113c0-0.2,0-0.2,0-0.4c-0.2,0-0.3-0.1-0.4-0.1
				c-0.2,0-0.4,0-0.7,0.1c-0.7,0-1.5-0.1-1.9,0.1c-0.2,0.1-1.3,0-1.4,0v0.1c-0.3,0.1-0.6-0.1-0.8,0.1c-0.1,0.1-0.3,0.4-0.2,0.7h0.1
				v0.2h0.1v0.2h0.1v0.2h0.1v0.1h0.1v0.1c0,0,0.1,0,0.1,0.1v0.1c0.1,0,0.1,0.1,0.2,0.1c0,0,0,0.1,0.1,0.1h0.3v0.1h0.2
				c0.1,0,0.1,0,0.2,0.1c0.2-0.1,0.4-0.3,0.8-0.2v0.1c0.4,0.1,0.7-0.2,0.9-0.3c0.1,0,0.2,0,0.3-0.1V114c0.1,0,0.2-0.1,0.3-0.1v-0.1
				h0.3v-0.1h0.2v-0.1c0.1,0,0.1,0,0.2-0.1v-0.1H25c0,0,0-0.1,0.1-0.1c0.1,0,0.1,0,0.2-0.1c0,0,0-0.1,0-0.1h0.1v-0.1h0.1l0.1-0.1
				h0.1v-0.1C25.8,113.1,25.8,113.1,26,113 M22.9,121.6c-0.1,0.1-0.3,0.1-0.5,0.1v0.1h-0.1v-0.1h-0.2c-0.1,0,0,0-0.1,0.1h-0.3v0.1
				c-0.1,0-0.1,0-0.2,0.1v0.1h-0.2c0,0,0,0.1-0.1,0.1h-0.1v0.1c-0.2,0-0.3,0-0.5,0.1v0.1h-0.2v0.1h-0.4v0.1h-0.1v0.1h-0.2v0.1
				c-0.2,0.1-0.4,0-0.4,0.1v0.3c0.1,0.1,0.2,0.2,0.3,0.3v0.1c0,0,0.1,0,0.1,0.1v0.2h0.1v0.1h0.1v0.1c0,0,0.1,0,0.1,0.1v0.1h0.1
				c0.1,0.2,0,0.2,0.1,0.3v0.1h0.4v-0.1c0.1,0,0.2,0,0.3-0.1v-0.1h0.2V124h0.1v-0.1h0.2v-0.1h0.2c0,0,0-0.1,0.1-0.1h0.1
				c0,0,0-0.1,0.1-0.1c0.2-0.2,0.2-0.3,0.5-0.3c0.1,0.1,0.3,0.1,0.4,0.2c0.1-0.2,0.2-0.2,0.4-0.3c0-0.1,0.1-0.1,0.1-0.2h0.1l0.1-0.1
				h0.1V123h0.2c0,0,0-0.1,0.1-0.1H24c0,0,0-0.1,0.1-0.1c0.1,0,0.1,0,0.2-0.1c0-0.1,0.1-0.1,0.1-0.2h0.1c0-0.1,0-0.1,0.1-0.2
				c0,0,0.1,0,0.1-0.1V122c-0.1-0.1-0.1-0.1-0.2-0.2c-0.2,0-0.3-0.1-0.5-0.1H22.9z M18,127.8c0-0.1,0-0.2,0.1-0.4c0,0-0.1,0-0.1-0.1
				h0.1v-0.1H18v-0.1v-0.4H18c0-0.1,0-0.1,0.1-0.2H18v-0.9h-0.1c-0.1-0.2,0.1-0.5,0.1-0.6h-0.1c-0.1-0.3,0-0.9,0.1-0.9v-0.4h-0.1
				v-0.3c-0.1-0.2-0.3-0.3-0.5-0.3v0.1c-0.1,0-0.2,0-0.3,0.1v0.1h-0.2v0.1h-0.2v0.1h-0.1v0.1h-0.2v0.1c-0.1,0-0.1,0-0.2,0.1v0.1
				c-0.2,0.1-0.1-0.1-0.2,0.1h-0.1v0.2H16v0.2c0,0,0.1,0,0.1,0.1v0.1c0.1,0,0.1,0.1,0.2,0.1v0.2h0.1c0,0.1,0.1,0.2,0.1,0.3h0.1v0.1
				h0.1v0.1h0.1v0.2h0.1c0,0.4,0,0.8-0.1,1.3c0,0.1-0.1,0.4-0.1,0.4h0.1c0,0.1-0.1,0.1-0.1,0.1v0.6h-0.1v0.2h-0.1v0.1
				c0,0,0.1,0,0.1,0.1v0.3h0.1v0.1h0.3c0.1-0.2,0.2-0.1,0.4-0.2v-0.1h0.1V128h0.2V128h0.2c0,0,0-0.1,0.1-0.1h0.1v-0.1
				C17.9,127.8,18,127.8,18,127.8 M18.1,130.5c0.1-0.4-0.1-1,0.1-1.5c0-0.1,0-0.3-0.1-0.4c-0.1-0.1-0.3-0.2-0.4-0.2
				c-0.1,0.2-0.3,0.1-0.5,0.2c0,0.1-0.1,0.1-0.1,0.2H17v0.1h-0.1v0.1h-0.2v0.1c-0.1,0.1-0.3,0.2-0.4,0.3c-0.1,0.3-0.2,0.6-0.3,0.9
				v0.3H16v0.2c0,0-0.1,0-0.1,0.1v0.1h-0.1v0.4h-0.1c0,0.1,0,0.1-0.1,0.2h-0.1c0,0.1,0,0.3-0.1,0.4h-0.1c0,0.1,0,0,0.1,0.1v0.7h-0.1
				v0.3h-0.1v0.8c0,0-0.1,0-0.1,0.2h0.1v0.3h0.1v0.3h0.1v0.2h0.1v0.4h0.1c0.1,0.2,0.1,0.3,0.2,0.5c0.2,0,0.3,0.2,0.5,0.2
				c0.6,0,1.1,0,1.7-0.1v-0.1h0.1v-0.1c0.3,0,0.6,0,0.9-0.1v-0.1h0.2v-0.1h0.3v-0.1H20v-0.1h0.2v-0.1h0.2v-0.1h0.2v-0.1
				c0.2,0,0.4,0,0.5-0.1c0,0,0-0.1,0.1-0.1h0.1V135h0.1V135c0.2,0,0.4-0.1,0.6-0.1v-0.1h0.2v-0.1h0.1v-0.1c0.1,0,0.2,0,0.3-0.1
				c0,0,0-0.1,0.1-0.1h0.2v-0.1H23v-0.1h0.2v-0.1c0.1,0,0.2,0,0.3-0.1v-0.1h0.1v-0.1h0.2v-0.1h0.1v-0.1h0.1c0,0,0-0.1,0.1-0.1H24
				v-0.1h0.1v-0.1h0.2v-0.1h0.1v-0.1h0.2v-0.1h0.1v-0.1c0.1,0,0.2,0,0.3-0.1v-0.1h0.1c0.1-0.1,0.3-0.2,0.4-0.3
				c0.1,0,0.1-0.1,0.2-0.1v-0.3c-0.1-0.1-0.1-0.1-0.2-0.2c0,0-0.1,0-0.1-0.1v-0.1c0,0-0.1,0-0.1-0.1v-0.1c0,0-0.1-0.1-0.2-0.1v-0.1
				h-0.1c0,0,0-0.1-0.1-0.1h-0.1v-0.1c-0.3-0.2-0.3-0.5-0.5-0.7c-0.1-0.1-0.3-0.2-0.4-0.3c-0.3,0.1-0.7,0.1-1,0.2v0.1h-0.1v0.1h-0.4
				v-0.1l-0.5,0.1v0.1h-0.1c0,0,0,0.1-0.1,0.1h-0.1v0.1h-0.1v0.1h-0.1v0.1h-0.1l-0.1,0.1h-0.1c-0.1,0.1-0.1,0.2-0.2,0.3
				c-0.1,0-0.2,0-0.3,0.1v0.1h-0.2c0,0,0,0.1-0.1,0.1c-0.1,0-0.2,0.1-0.3,0.1v-0.2c0.1,0,0.1-0.1,0.1-0.1h0.1c0,0,0-0.1,0.1-0.1
				c0.1,0,0.1,0,0.2-0.1c0-0.1,0.1-0.1,0.1-0.2h0.1l0.3-0.3h0.1c0.1-0.1,0.1-0.1,0.2-0.2h0.1c0,0,0-0.1,0.1-0.1h0.1
				c0.1-0.1,0.1-0.2,0.2-0.2h0.1c0.1-0.1,0.1-0.1,0.2-0.2c0.1,0,0.1,0,0.2-0.1c0,0,0-0.1,0.1-0.1c0.1,0,0.1,0,0.2-0.1
				c0-0.1,0-0.2,0.1-0.3h-0.1v-0.2c0,0-0.1,0-0.1-0.1c0-0.1-0.1-0.2-0.1-0.3c0,0-0.1,0-0.1-0.1c0-0.1,0-0.2-0.1-0.3H22v-0.3v-0.7
				h0.1v-0.2h0.1v-0.4c-0.2,0-0.5-0.1-0.7,0h-0.2v0.1H21v0.1h-0.3l-0.7,0.2c0,0.1-0.1,0.1-0.1,0.1v0.1H20v0.5c0,0.1-0.1,0.3-0.1,0.4
				h0.1v0.5h-0.1v0.5h-0.1v0.4h-0.1v0.1c0,0.1,0.1,0.4,0.1,0.6h-0.1v0.1h-0.1v0.3h-0.1v0.1h-0.1v0.2h-0.1v0.2h-0.1
				c0,0.1,0.1,0.1,0.1,0.2h-0.1c-0.1,0.3-0.1,0.4-0.4,0.4c-0.2-0.3-0.6-0.1-1-0.2c0,0,0-0.1-0.1-0.1v0.1c-0.1,0-0.3,0-0.4,0.1v-0.1
				h-0.1c0-0.1,0-0.3-0.1-0.4h0.1v-0.3h-0.1v-0.4c0-0.1,0.1-0.3,0.1-0.5h-0.1v-0.2h0v-0.1h-0.1v-0.3h-0.1c-0.1-0.2-0.1-0.3-0.2-0.4
				c0,0,0-0.1,0.1-0.1c0,0,0.1,0,0.1,0.1c0,0.1,0,0.1,0.1,0.2h0.1v0.1c0.1,0,0.1,0.1,0.2,0.1v0.2c0,0,0.1,0,0.1,0.1
				c0.1,0.2,0.1,0.3,0.4,0.3C18.1,130.5,18,130.5,18.1,130.5 M27.7,140.6h0.1c0,0.1,0,0.1,0.1,0.2c0.1,0,0.1,0,0.2,0.1
				c0,0.1,0,0.1,0.1,0.2h0.1c0,0.2,0,0.3,0.1,0.5c-0.6,0.3-0.6,1.3-0.6,2.1c0,0.2,0,0.5-0.1,0.7h0.1v0.2h0.1v0.2h0.1
				c0,0.3,0,0.5-0.1,0.8h0.1c0,0,0,0.1-0.1,0.1c0,0,0.1,0.1,0.1,0.1h-0.1c0,0.2,0,0.4-0.1,0.6h0.1c0.1,0.2,0.3,0.7,0.2,1h-0.1
				c0,0.2-0.1,0.4-0.1,0.7h0.1c0,0.2,0,0.4,0.1,0.5h0.1v0.2h0.1v1.1H28v0.1H28v0.3h0.1c0.1,0.2-0.1,0.6-0.1,0.7v0.3
				c0,0-0.1,0-0.1,0.1H28c0,0.2,0,0.4,0.1,0.6h0.1c0,0.1,0,0.1-0.1,0.2h0.1v1.1h0.1v0.7c0,0.5,0.1,0.7-0.1,1.1v0.8h0.1
				c0,0.1,0,0.3-0.1,0.4h0.1v0.3h0.1v0.3h0.1c0,0.1-0.1,0.1-0.1,0.1v0.9h-0.1v0.2h-0.1v0.3c0,0-0.1,0-0.1,0.1v0.1h-0.1
				c0,0.1,0.3,0.3,0.2,0.6H28v0.1c-0.1,0-0.1,0.1-0.2,0.1c0,0.3-0.1,0.5-0.1,0.8h-0.1c0,0.1,0,0.1-0.1,0.2c0,0-0.1,0-0.1,0.1v0.1
				c0,0-0.1,0-0.1,0.1c0,0.1,0,0.3-0.1,0.4c0,0-0.1,0-0.1,0.1v0.1h-0.1c0,0.1-0.1,0.2-0.1,0.3c-0.1,0-0.1,0-0.2,0v0.1
				c-0.1,0-0.2,0-0.3,0.1v0.1c-0.2,0.1-1,0-1.1-0.1c-0.2,0-0.4,0-0.6,0.1v-0.1h-0.1v-0.1c-0.1,0-0.2,0-0.3-0.1v0h-0.1
				c0-0.1-0.1-0.1-0.1-0.2h-0.1c0,0,0-0.1-0.1-0.1h-0.2v-0.1h-0.1v-0.1h-0.1v0.1c-0.3,0-0.5,0-0.8-0.1v0c-0.1,0-0.2,0-0.3-0.1v0.1
				h-0.3v0h-0.1v0.1c-0.1,0-0.1,0-0.1-0.1H22v0.1h-0.4v0.1h-0.2v0.1h-0.1v0.1c-0.1,0-0.3,0-0.4,0.1v0.1c-0.2,0.1-0.3,0.1-0.5,0.2
				v0.1h-0.1v0.1c-0.1,0-0.1,0-0.2,0.1v-0.1h0.1c0.1-0.2,0.2-0.1,0.4-0.3c0-0.1,0.1-0.1,0.1-0.2c0.1,0,0.2-0.1,0.3-0.1
				c0,0,0-0.1,0.1-0.1c0.1,0,0.2,0,0.3-0.1v-0.1c0.1,0,0.1,0,0.2-0.1v-0.1h0.2v-0.1c0.1,0,0.1,0,0.2-0.1v-0.1h0.2v-0.1
				c0.1,0,0.1,0,0.2-0.1v-0.1h0.2v-0.1c0.1,0,0.1,0,0.2-0.1c0,0,0-0.1,0.1-0.1h0.1c0,0,0-0.1,0.1-0.1c0.2-0.1,0.3-0.1,0.5-0.2
				c0.1-0.1,0.1-0.2,0.2-0.3h0.1v-0.1H24c0,0,0-0.1,0.1-0.1c0.1,0,0.1,0,0.2-0.1c0-0.1,0.1-0.1,0.1-0.2h0.1c0,0,0-0.1,0.1-0.1h0.1
				c0-0.1,0.1-0.1,0.1-0.2H25c0,0,0-0.1,0.1-0.1h0.1c0,0,0-0.1,0.1-0.1h0.1v-0.1c0.1-0.1,0.1-0.1,0.2-0.1c0-0.1,0-0.1,0.1-0.2h0.1
				v-0.1h0.1v-0.2c0,0,0.1,0,0.1-0.1c0-0.1,0-0.2,0.1-0.3h0.1v-0.1H26c0.1-0.4,0.2-0.7,0.3-1.1v-1.1v-0.3h0.1v-0.1h-0.1
				c0-0.1,0-0.1,0.1-0.2c0-0.2-0.1-0.7-0.1-1h0.1v-0.3h0.1c0,0-0.1-0.2-0.1-0.3c0-0.5,0-1.1-0.1-1.6h-0.1c0-0.1,0.1-0.1,0.1-0.2
				h-0.1c0-0.4,0-0.8-0.1-1.3v-1h-0.1V149c0,0,0.1,0,0.1-0.1h-0.1v-0.2h-0.1v-0.1c0-0.1,0,0,0.1-0.1v-0.1h-0.1c0,0,0-0.1,0.1-0.1
				h-0.1v-0.2H26c0-0.1,0-0.1,0.1-0.2H26V148h0.1c0,0,0-0.1-0.1-0.1h0.1v-0.2H26v-0.5H26c0,0,0-0.1,0.1-0.2c0-0.4,0-1-0.1-1.2v-0.7
				H26c0,0,0-0.1-0.1-0.1H26v-0.1H26v-0.4h-0.1c0-0.1,0.1-0.3,0.1-0.3h-0.1v-1.1v-0.3h-0.1v-0.1h0.1c0.1-0.5,0.1-1.1,0.1-1.5
				c-0.2-0.1-0.3-0.2-0.6-0.1v0.1c-0.1,0-0.2,0-0.3,0.1c0,0,0,0.1-0.1,0.1h-0.1c0,0.1-0.1,0.1-0.1,0.2c-0.2,0.1-0.3,0-0.3,0.3h-0.1
				c-0.2,0.2-0.3,0.4-0.5,0.5c0,0-0.1,0-0.1,0.1v0.1c-0.1,0.1-0.1,0.1-0.2,0.2v0.1c-0.1,0-0.1,0.1-0.2,0.1v0.1h-0.1v0.1h-0.1v0.1
				l-0.1,0.1v0.1l-0.2,0.1v0.1H23c0,0.1,0,0.1-0.1,0.2h-0.1c0,0.2-0.1,0.5-0.1,0.7v0.4h-0.1c0,0.1-0.1,0.2-0.1,0.3h-0.1
				c0,0.3,0,0.6,0.1,0.9h-0.1v0.2h-0.1v0.1h-0.1v0.2c0,0-0.5,0.2-0.6,0.2v-0.1c-0.1,0-0.2,0-0.3-0.1c0-0.1-0.1-0.1-0.1-0.2
				c-0.1-0.1-0.3-0.3-0.4-0.4V146c-0.1,0-0.1-0.1-0.2-0.1v-0.1h-0.1v-0.3c0,0-0.1,0-0.1-0.1v-0.1c-0.1-0.1-0.2-0.1-0.3-0.2v-0.1
				h-0.1v-0.3h0.1c0-0.1-0.1-0.2-0.1-0.2v-0.3c-0.1,0-0.1-0.1-0.2-0.1c0-0.1,0-0.1-0.1-0.2H20V144c-0.2,0-0.4,0-0.5,0.1
				c0,0,0,0.1-0.1,0.1c-0.1,0-0.2,0-0.3,0.1c0,0,0,0.1-0.1,0.1h-0.1c0,0.1-0.1,0.1-0.1,0.2h-0.1c-0.1,0.1-0.1,0.1-0.2,0.2
				c-0.1,0-0.1,0-0.2,0.1c0,0.1-0.1,0.1-0.1,0.2c-0.1,0-0.2,0.1-0.3,0.1c0,0.1-0.1,0.1-0.1,0.2c-0.1,0-0.1,0-0.2,0.1v0.1
				c-0.1,0-0.1,0.1-0.2,0.1v0.7h0.1c0,0.1,0,0.2-0.1,0.3h0.1c0,0.1,0,0.2-0.1,0.3v0.7h-0.1v0.2h0v0.2c0,0-0.1,0-0.1,0.1v0.2h-0.1
				v0.1h-0.1v0.1c-0.1,0.1-0.1,0.1-0.3,0.1v0.1c-0.1,0-0.1-0.1-0.2-0.1h-0.1v-0.1h-0.1v-0.1h-0.1v-0.1h-0.1v-0.1
				c-0.1,0-0.2-0.1-0.3-0.1v-0.1c-0.1,0-0.3,0-0.4-0.1v-0.1h-0.1v-0.1c-0.3,0-0.7,0-1-0.1v0.1c-0.1,0-0.1,0-0.2-0.1v0.1
				c-0.2,0.1-0.2,0.2-0.4,0.2v0.1h-0.1c-0.1,0.2-0.4,0.3-0.5,0.5h-0.1v0.5c-0.1,0-0.1,0-0.2,0.1c-0.1,0.1-0.3,0.2-0.4,0.1v-0.1h-0.2
				v-0.1c-0.1-0.1-0.1,0.1-0.2-0.1c-0.1-0.1,0-0.1-0.1-0.3H12v-0.2h-0.1v-0.1H12c0-0.1,0-0.2,0.1-0.3h0.1c0.1-0.2,0.2-0.3,0.2-0.5
				c-0.1-0.1,0,0-0.1-0.1c-0.1,0-0.1-0.1-0.3-0.1v-0.2h0.1v-0.1h0.1c0,0,0-0.1,0.1-0.1h0.1c0-0.1,0-0.2,0.1-0.3c0,0,0.1,0,0.1-0.1
				v-0.1h0.1c0,0,0-0.1,0.1-0.1h0.2c0.2-0.1,0.3-0.1,0.5-0.2c0-0.1,0-0.1,0.1-0.2c0,0,0.2-0.3,0.2-0.3c0.1,0,0.1,0,0.2-0.1v-0.1h0.2
				v-0.1H14v-0.1h0.2v-0.1h0.2v-0.1h0.2v-0.1h0.1v-0.1h0.2c0,0,0-0.1,0.1-0.1H15c0-0.1,0.1-0.1,0.1-0.2h0.1c0-0.1,0.1-0.1,0.1-0.2
				c0,0,0.2-0.3,0.1-0.4c0,0-0.1,0-0.1-0.1v-0.3h-0.1V144h-0.1v-0.2h-0.1c0-0.1,0.1-0.2,0.1-0.2c0-0.1,0-0.1-0.1-0.1v-0.2
				c0,0-0.1,0-0.1-0.1c-0.1-0.1,0.1-0.1-0.2-0.2V143h-0.2c-0.1,0,0-0.1-0.1-0.1v0.1c-0.1,0-0.2,0-0.3,0.1v0.1
				c-0.1,0.1-0.3,0-0.4,0.1v0.1h-0.1l-0.1,0.1h-0.1c0,0,0,0.1-0.1,0.1h-0.2v0.1h-0.1v0.1h-0.1v0.1h-0.1c0,0,0,0.1-0.1,0.1
				c-0.1,0-0.2,0-0.3,0.1c0,0.1-0.1,0.1-0.1,0.2h-0.1c0,0.1-0.1,0.1-0.1,0.2h-0.1c0,0,0,0.1-0.1,0.1c-0.1,0.1-0.2,0.1-0.3,0.2v0.1
				c-0.1,0.1-0.1,0.1-0.2,0.2v0.1h-0.1v0.3h-0.1v0.2h-0.1v0.5h-0.1v0.2h-0.1v0.2h-0.1v0.3h-0.1v0.3c0,0-0.1,0-0.1,0.1v0.2h-0.1
				c-0.1,0.1-0.2,0.5-0.1,0.7h0.1v0.2h0.1v0.3h0.1v0.1l-0.1,0.1h0.1c0,0.1-0.1,0.1-0.1,0.3h0.1v0.1h0.1c0,0.2,0,0.5,0.1,0.7
				c0,0.1-0.2,0.5-0.1,0.7h0.1v0.4h-0.1v0.2h-0.1v1c0,0,0.1,0,0.1,0.1h-0.1v0.1h-0.1v0.3h-0.1c0,0.1,0,0,0.1,0.1v0.1h-0.1
				c0,0.1,0,0.1,0.1,0.2h-0.1v0.4h-0.1c0,0.1,0.1,0.2,0.1,0.4h-0.1v0.2h0c0,0.1,0,0.1,0,0.2c0,0.1,0,0.2,0,0.2
				c-0.1,0.2,0.1,0.5,0.1,0.6c0.1,0.2,0,0.5-0.1,0.6c-0.1,0.3,0,0.5,0,0.8c0.1,0,0.1,0,0.2,0.1v0.1c0,0,0.1-0.1,0.2-0.1
				c0,0,0,0,0.1,0.1c0,0.1,0,0.2,0.1,0.3c0.1,0.1,0,0.9-0.1,1c0,0.1,0,0.1-0.1,0.2h-0.1c0,0.1,0,0.1-0.1,0.2c0,0-0.1,0-0.1,0.1
				c0,0.1,0,0.1-0.1,0.2h-0.2c-0.1-0.1-0.3-0.1-0.4-0.2c0,0,0-0.1-0.1-0.1c-0.2-0.2-0.4-0.3-0.4-0.6c-0.2-0.1-0.2-0.1-0.3-0.3
				c-0.1-0.1-0.2-0.1-0.3-0.2v-0.1H9.5c0-0.1,0-0.1-0.1-0.2c0,0-0.1,0-0.1-0.1v-0.2c-0.1-0.1-0.1-0.1-0.2-0.2v-0.1
				c-0.2,0-0.4-0.1-0.6-0.1c0-0.3-0.2-0.8-0.2-1h0.1c0-0.2-0.1-0.4-0.1-0.4h0.1V154h0.1c0.1-0.1,0.1-0.1,0.1-0.2h0.1
				c0-0.1,0-0.1,0.1-0.2c0,0,0.1,0,0.1-0.1c0-0.1,0-0.3,0.1-0.4h0.1c0-0.1,0-0.2,0.1-0.3H9v-0.1h0.1c0,0,0-0.1-0.1-0.1h0.1v-0.1h0.1
				v-0.2h0.1v-0.6h0.1v-0.7c0.1-0.4,0.1-1.1,0.2-1.5V149h0.1v-0.7h0.1v-0.8H9.5V147c-0.1-0.2-0.2-0.4-0.3-0.6
				c-0.4-0.1-0.4-0.5-0.6-0.7v-0.1c0.1,0,0.2,0,0.3-0.1c0.1,0.1,0.1,0,0.2,0.1v0.1h0.1c0,0.1,0.1,0.1,0.1,0.2h0.2v0.1
				c0.1,0,0.1,0,0.2,0.1c0.1,0.1,0.1,0.1,0.2,0.2c0.2,0.1,0.4,0.1,0.4,0.4c0.2,0,0.2,0.1,0.5,0.1c0-0.1,0.1-0.1,0.1-0.2h0v-0.1h0.1
				v-0.4h0.1v-0.2h0.1v-0.3h0.1v-0.2h0.1V145h0.1v-0.2h0.1v-0.1h0.1v-0.2h0.1v-0.3h0.1l0.1-0.3h0.1v-0.1h0.1c0-0.1,0-0.2,0.1-0.3
				h0.1c0-0.1,0-0.1,0.1-0.2c0,0,0.1,0,0.1-0.1c0-0.1,0-0.1,0.1-0.2c0,0,0.1,0,0.1-0.1v-0.1c0.1,0,0.1-0.1,0.2-0.1v-0.1l0.1-0.1h0.1
				c0-0.1,0.1-0.1,0.1-0.2c0.1,0,0.1,0,0.2-0.1c0-0.1,0.1-0.1,0.1-0.2c0.1-0.1,0.2-0.1,0.4-0.2v-0.1h0.1c0.1-0.1,0.2-0.2,0.3-0.3
				c0.1-0.2,0-0.4,0.3-0.4v-0.1c0.1,0,0.6-0.1,0.7,0v0.1H15v0.1c0.1,0,0.2,0,0.3-0.1v0.1c0.2,0,0.4,0,0.5-0.1v-0.1
				c0.1,0,0.1,0,0.1,0.1h0.3c0.1,0.2,0.4,0.2,0.5,0.4H17v0.2H17c0.1,0.3-0.1,0.6-0.2,0.8c0.1,0.2,0.2,0.7,0.2,1.1
				c0.2,0,0.3,0.1,0.5,0.1c0.1-0.1,0.3-0.1,0.4-0.2c0,0,0-0.1,0.1-0.1h0.1v-0.1c0.1,0,0.2,0,0.3-0.1v-0.1h0.2v-0.1h0.1v-0.1h0.2
				v-0.1h0.2V143c0.1,0,0.1,0,0.2-0.1v-0.1h0.3v-0.1c0,0,0.1,0,0.1,0.1l0.1-0.1v0.1c0.1,0,0.4-0.1,0.6-0.1c0,0,0,0.1,0.1,0.1
				c0.2,0,0.5,0.1,0.7,0.1v0.1h0.1v0.1h0.2c0.1,0.1,0.2,0.1,0.4,0.2v-0.1c0.1,0,0.2,0,0.3-0.1c0.1-0.1,0.1-0.2,0.2-0.3
				c0.2-0.2,0.5-0.4,0.7-0.7v-0.1c0.2-0.2,0.4-0.4,0.6-0.5v-0.1c0.1,0,0.1-0.1,0.2-0.1c0-0.1,0-0.1,0.1-0.2H24c0,0,0-0.1,0.1-0.1
				h0.1c0.1-0.1,0.2-0.3,0.3-0.4h0.1c0-0.1,0.1-0.1,0.1-0.2h0.1c0-0.1,0.1-0.1,0.1-0.2c0.1,0,0.1,0,0.2-0.1c0-0.1,0-0.1,0.1-0.2
				c0.1,0,0.1-0.1,0.2-0.1c0-0.1,0-0.1,0.1-0.2c0.1-0.1,0.1,0,0.2-0.1c0.3,0,0.6-0.1,0.8,0v0.1h0.1v0.1h0.3c0,0,0,0.1,0.1,0.1h0.2
				v0.1h0.1v0.1h0.2c0,0,0,0.1,0.1,0.1C27.5,140.4,27.7,140.4,27.7,140.6 M13.8,142.2h-0.1c0,0.1,0,0.1-0.1,0.2h0.1v0.1l0.1-0.1
				l0.1-0.1C13.8,142.3,13.8,142.2,13.8,142.2 M22.6,164.6v-0.1h0.1c0.1-0.2,0-0.2,0.2-0.3v0.1h-0.1v0.2h-0.1c0,0.1,0,0.1-0.1,0.2
				H22.6z M24.7,168.1c0,0.5,0.1,0.7,0.5,0.7v0.1c0.2,0,0.4-0.1,0.5-0.1v0.1h0.5v0.1h0.3v0.1h0.4v0.1c0.2,0,0.3,0,0.5,0.1v0.1h0.1
				v0.1h0.2v0.1c0.1,0,0.2,0.1,0.3,0.1v0.1h0.1c0,0.1,0.1,0.1,0.1,0.2h0.1v0.1c0.1,0.1,0.2,0.2,0.4,0.3c0,0.2,0.2,0.2,0.2,0.4v0.1
				h0.1c0,0.1,0,0.3,0.1,0.4h0.1v0.3c0,0,0.1,0,0.1,0.1c0,0-0.1,0-0.1,0.1h0.1v0.4h-0.1v0.3h-0.1c0,0.1,0,0.1,0.1,0.2h-0.1
				c0,0.1-0.1,0.2-0.1,0.3H29c-0.1,0.2,0,0.4-0.1,0.6h-0.1c0,0.1,0,0.1-0.1,0.2c0,0-0.1,0-0.1,0.1v0.1c0,0-0.1,0-0.1,0.1
				c-0.1,0.2,0,0.4-0.3,0.4v0.1h-0.4v0.1h-0.1l-0.1,0.1c-0.1,0-0.1,0-0.2,0.1c0,0,0,0.1-0.1,0.1h-0.2v0.1h-0.2v0.1h-0.1v0.1h-0.3
				c-0.2,0.1-0.2,0.2-0.2,0.4c0.1,0,0.1,0.1,0.2,0.1v0.1c0.1,0.1,0.2,0.2,0.3,0.3v0.1c0,0,0.1,0,0.1,0.1v0.1h0.2v0.1
				c0.1,0,0.2,0.1,0.3,0.1v0.1h0.3v0.1h0.1v0.1H28v0.1h0.2c0,0,0,0.1,0.1,0.1h0.1v0.1c0.1,0.1,0.1,0,0.1,0.2
				c0.1,0.1-0.1,0.3,0.1,0.5h-0.1c-0.1,0.3-0.3,0.5-0.5,0.7h-0.1c0,0,0,0.1-0.1,0.1h-0.1c0,0,0,0.1-0.1,0.1h-0.1v0.1
				c-0.1,0-0.1,0-0.2,0.1v0.1h-0.2v0.1c-0.1,0-0.1,0-0.2,0.1c-0.1,0.1-0.1,0.1-0.2,0.2h-0.1c0,0,0,0.1-0.1,0.1h-0.2
				c0,0,0,0.1-0.1,0.1h-0.1v0.1c-0.1,0-0.2,0-0.3,0.1c0,0.1-0.1,0.1-0.1,0.2c-0.1,0-0.1,0-0.2,0.1v0c-0.1,0-0.2,0-0.3,0.1v0.1h-0.1
				v0.1c-0.2,0.1-0.1,0.2-0.2,0.4H25c-0.1,0.4,0.3,1,0.1,1.5h-0.1c0,0.2,0,0.3-0.1,0.5h0.1v0.4h0.1v0.7h0.1v0.5h-0.1
				c0,0.1,0.1,0.1,0.1,0.2h-0.1v0.4h-0.1v0.7H25v0.2H25v0.1h-0.1c-0.1,0.4,0.3,0.8,0.1,1.2c0,0-0.1,0-0.1,0.1v0.2h-0.1
				c0,0.1,0,0.1-0.1,0.2h-0.1v0.4c0,0-0.1,0-0.1,0.1c0,0.1,0,0.1-0.1,0.2h-0.1c0,0.2-0.1,0.5-0.1,0.7h-0.1v0.1h-0.1v0.2h-0.1v0.3
				h-0.1v0.2h-0.1v0.2h-0.1v0.2H24c0,0.2-0.1,0.4-0.1,0.5h-0.1v0.1c-0.1,0.1-0.1,0.1-0.2,0.2c0,0.1,0,0.1-0.1,0.2h-0.1
				c-0.1,0.2-0.1,0.5-0.2,0.7h-0.1v0.1h-0.1v0.2h-0.1v0.1h-0.1c-0.1,0.4-0.2,0.8-0.3,1.3h-0.1v-0.3h0.1c0-0.2,0.1-0.5,0.1-0.7H23
				v-0.5h0.1v-0.3h0.1v-0.4c0-0.1,0.2-0.4,0.1-0.6h-0.1v-1h0.1v-0.7h-0.1v-0.1h0.1v-0.2c0,0-0.1,0-0.1-0.1h0.1v-0.9
				c0-0.1-0.1-0.4-0.1-0.5c0.1-0.3,0.1-0.8,0.1-1.2c0-0.7,0.1-1.5-0.1-2.1c0-0.4,0.1-0.8,0.1-1.3h-0.1c0-0.1,0,0,0.1-0.1
				c0-0.1,0-0.1-0.1-0.2h0.1v-0.3h-0.1v-0.4h-0.1c0-0.1,0.1-0.2,0.1-0.2c0-0.1,0-0.2-0.1-0.3c-0.1-0.1-0.2-0.1-0.5-0.1v0.1
				c-0.1,0-0.2-0.1-0.4-0.1v0.1c-0.1,0-0.1,0-0.2-0.1h-0.3v0.1c-0.2,0-0.4,0-0.5-0.1c-0.1-0.2-0.3-0.4-0.4-0.5c-0.1,0-0.1,0-0.2-0.1
				v-0.1c-0.3,0-0.5-0.1-0.8-0.1V179c-0.4-0.2-0.6-0.4-0.9-0.7c-0.1,0-0.1-0.1-0.2-0.1V178h-0.1v-0.1h-0.1v-0.2c0,0-0.1,0-0.1-0.1
				v-0.2h-0.1c0-0.1,0-0.1-0.1-0.2h-0.1v-0.2h-0.1c0-0.1,0-0.1-0.1-0.2h-0.1c0-0.1,0-0.2-0.1-0.3h-0.1c0-0.2-0.1-0.4-0.1-0.5H18V176
				H18v-0.2h-0.1v-0.7h-0.1c0-0.1,0-0.3-0.1-0.4h-0.1c0,0,0-0.1-0.1-0.1h-0.1v-0.1c-0.2,0-0.1,0.1-0.3,0.1c-0.1,0.2-0.1,0.3-0.2,0.5
				c-0.1,0.1-0.1,0.1-0.2,0.2c0,0.1-0.1,0.2-0.1,0.3c0,0-0.1,0-0.1,0.1v0.1c-0.1,0.1-0.2,0.1-0.3,0.2c-0.1,0.2-0.1,0.4-0.2,0.6
				c0,0-0.1,0-0.1,0.1v0.1c0,0-0.1,0-0.1,0.1v0.1c0,0-0.1,0-0.1,0.1v0.2h-0.1v0.2h-0.1c-0.1,0.2-0.2,0.4-0.4,0.5
				c0,0.1-0.1,0.3-0.1,0.4c0,0-0.1,0-0.1,0.1c0,0.1,0,0.2-0.1,0.3c0,0-0.1,0-0.1,0.1v0.1h-0.1v0.1h-0.1v0.2h-0.1
				c0,0.1,0,0.1,0.1,0.2h-0.1v0.1h0.1v0.4h0.1c0,0.2,0,0.4,0.1,0.6H15v0.1c0,0,0.1,0,0.1,0.1v0.1l0.1,0.1v0.1h0.1v0.1h0.1v0.1
				c0,0,0.1,0,0.1,0.1c0,0.1,0,0.3,0.1,0.4c0,0,0.1,0,0.1,0.1c0,0.3,0.1,0.5,0.1,0.8h-0.1c0,0.1,0,0.3-0.1,0.4h-0.1v0.2
				c0,0-0.1,0-0.1,0.1v0.2h-0.1v0.1h-0.1c0,0.1,0,0.1-0.1,0.2c-0.2-0.1-0.1-0.1-0.3-0.3c0,0-0.1,0-0.1-0.1v-0.1
				c-0.1,0-0.1-0.1-0.2-0.1l-0.1-0.1h-0.1c-0.1-0.1-0.2-0.2-0.3-0.4c-0.2-0.1-0.2-0.2-0.3-0.3c-0.1,0-0.1,0-0.2-0.1
				c0,0,0-0.1-0.1-0.1l-0.3-0.1c-0.1,0-0.4-0.6-0.4-0.7c-0.1,0-0.2,0-0.2-0.1c-0.1,0.1-0.3,0.1-0.4,0.2c0,0.1-0.1,0.1-0.1,0.2h-0.1
				c-0.1,0.2-0.3,0.3-0.4,0.5h-0.1c-0.1,0.1-0.1,0.1-0.2,0.2h-0.1c0,0,0,0.1-0.1,0.1h-0.1c-0.1,0.1-0.2,0.2-0.3,0.3h-0.1
				c0,0.1,0,0.1-0.1,0.2l-0.1,0.1h-0.1v0.1c-0.1,0.1-0.1,0.1-0.3,0.2v0.1c-0.3,0.1-0.4,0.3-0.9,0.3c-0.1-0.1-0.3-0.1-0.4-0.2
				c0-0.1,0-0.1-0.1-0.2H8.8c0-0.1-0.1-0.1-0.1-0.2H8.6c0,0,0-0.1-0.1-0.1H8.4c-0.1-0.1-0.2-0.2-0.3-0.3c0,0-0.1,0-0.1-0.1v-0.1
				c0,0-0.1,0-0.1-0.1c-0.2-0.2-0.3-0.3-0.3-0.7h0.1v-0.3h0.1v-0.2h0.1v-0.1h0.1v-0.2h0.1v-0.2h0.1v-0.1h0.1v-0.2H8v-0.1
				c0.1,0,0.1-0.1,0.2-0.1v-0.1l0.1-0.1v-0.1h0.1v-0.1c0,0,0.1,0,0.1-0.1l0.1-0.3h0.1c0-0.1,0.1-0.2,0.1-0.3h0.1v-0.1h0.1
				c0-0.1,0-0.1,0.1-0.2c0.1,0,0.1-0.1,0.2-0.1c0-0.1,0-0.1,0.1-0.2h0.1c0.1-0.1,0.1-0.1,0.1-0.2c0.1,0,0.1,0,0.2-0.1v-0.1h0.2
				c0,0,0-0.1,0.1-0.1h0.1c0,0,0-0.1,0.1-0.1h0.1c0,0,0-0.1,0.1-0.1H10c0.1-0.1,0.1-0.1,0.2-0.2h0.1c0-0.1,0.1-0.1,0.1-0.2
				c0.1,0,0.3-0.1,0.4-0.1c0.1-0.1,0.1-0.1,0.2-0.2H11v-0.1c0.2-0.3,0.4-0.4,0.9-0.3c0.1,0.2,0.1,0.4,0.2,0.5
				c0.1,0.1,0.2,0.2,0.3,0.3c0.1,0.1,0.2,0.1,0.3,0.2c0.3,0,0.5,0,0.6-0.2c0.2-0.2,0.1-0.4,0.1-0.7v-0.2h0.1v-1
				c0-0.1,0.1-0.1,0.1-0.1v-0.9v-0.6c0.1-0.2,0.2-0.9,0.1-1.2h-0.1v-0.2c0-0.2,0-0.4,0.1-0.6h-0.1v-0.1h-0.1v-0.4
				c-0.1-0.3-0.1-0.5-0.6-0.5c-0.1,0.1-0.3,0-0.5,0.1v0.1h-0.2v0.1h-0.2v0.1h-0.3v0.1h-0.2v0.1h-0.1v0.1h-0.1c0,0.1-0.1,0.1-0.1,0.2
				H11c-0.1,0.1-0.2,0.2-0.3,0.3h-0.1c0,0.1-0.1,0.1-0.1,0.2h-0.1c-0.1,0.2-0.1,0.3-0.2,0.5c-0.2,0.1-0.1,0-0.2,0.2
				c0,0-0.1,0-0.1,0.1v0.1H10c-0.1,0.3,0.1,0.3-0.2,0.5v0.1H9.7c-0.2,0.2-0.3,0.4-0.5,0.5H9c-0.1,0.1-0.1,0.2-0.2,0.3H8.7
				c0,0.1-0.1,0.1-0.1,0.2H8.5c-0.1,0.1-0.1,0.1-0.2,0.2c-0.1,0-0.3,0-0.4,0.1v0.1c-0.1,0-0.1,0-0.2,0.1v0.1H7.6v0.1
				c-0.3,0-0.5,0-0.8,0.1v-0.1c-0.1,0-0.1,0.1-0.1,0.1H5.8v-0.1c-0.1,0-0.2,0-0.3-0.1c-0.1-0.1-0.1-0.2-0.2-0.4
				c0.1-0.1,0.3-0.1,0.4-0.2h0.1l0.1-0.1c0.1,0,0.2-0.1,0.3-0.1c0-0.1,0.1-0.1,0.1-0.2h0.1c0,0,0-0.1,0.1-0.1h0.1v-0.1h0.1l0.1-0.1
				H7c0.1-0.1,0.1-0.1,0.2-0.2h0.1c0.1-0.1,0.1-0.1,0.2-0.2c0.1,0,0.1,0,0.2-0.1v-0.1c0.1,0,0.1,0,0.2-0.1c0,0,0-0.1,0.1-0.1
				c0.1,0,0.1,0,0.2-0.1c0,0,0-0.1,0.1-0.1c0.1,0,0.1,0,0.2-0.1c0,0,0-0.1,0.1-0.1c0.1,0,0.2-0.1,0.3-0.1c0,0,0-0.1,0.1-0.1h0.1
				v-0.1H9v-0.1h0.1l0.1-0.1h0.1c0-0.1,0.1-0.1,0.1-0.2h0.1c0,0,0-0.1,0.1-0.1c0.1,0,0.1,0,0.2-0.1v-0.1c0.1,0,0.1,0,0.2-0.1
				c0,0,0-0.1,0.1-0.1c0.1,0,0.1,0,0.2-0.1c0,0,0-0.1,0.1-0.1h0.1V171h0.1v-0.1h0.1l0.1-0.1h0.1c0,0,0-0.1,0.1-0.1H11v-0.1h0.1v-0.1
				h0.2v-0.1h0.1v-0.1h0.3v-0.1h0.1v-0.1c0.2,0,0.4,0,0.5-0.1v-0.1h0.2v-0.1h0.8v0.1c0.2,0,0.4,0,0.7-0.1v0.1
				c0.3,0.1,0.5,0.1,0.8,0.2c0.1,0.1,0.2,0.3,0.3,0.4c-0.1,0.2-0.2,0.9-0.1,1.2h0.1v0.4h0.1v0.1h-0.1v1.2c-0.1,0.5-0.2,1.3-0.1,1.8
				c0.2,0,0.4,0.1,0.6-0.1c0,0,0-0.1,0.1-0.1c0,0,0.1,0,0.1-0.1v-0.1c0.1,0,0.1-0.1,0.2-0.1c0-0.1,0-0.1,0.1-0.2h0.1
				c0.1-0.3,0.4-0.3,0.5-0.7h0.1c0.1-0.1,0.2-0.2,0.3-0.3h0.1v-0.1c0.1,0,0.1-0.1,0.2-0.1v-0.1c0.1,0,0.1,0,0.2-0.1v-0.1
				c0.1-0.1,0.2-0.1,0.3-0.2v-0.1c0.1-0.1,0.3-0.2,0.4-0.3c0-0.2,0-0.4,0.1-0.5h-0.1c0-0.2-0.1-0.3-0.1-0.5c0.1-0.1,0.2-0.1,0.3-0.2
				c0-0.1,0.1-0.2,0.2-0.3c0.1-0.1,0.4,0,0.5-0.1v-0.1h0.1v-0.1H19c0-0.1,0.1-0.1,0.1-0.2h0.1c0-0.1,0.1-0.1,0.1-0.2h0.1
				c0.1-0.1,0.1-0.1,0.2-0.2h0.1c0,0,0-0.1,0.1-0.1h0.1c0,0,0-0.1,0.1-0.1l1-0.4c0.1,0,0.2,0,0.3-0.1v-0.1h0.1v-0.1
				c0.1,0,0.1,0,0.2-0.1v-0.1c0.2-0.1,0.5-0.1,0.7-0.2v-0.1h0.1v-0.1h0.2v-0.1h0.1v-0.1c0.2,0,0.4-0.1,0.5-0.1
				c0-0.1,0.1-0.1,0.1-0.2h0.1V169h0.1v-0.7h0.1V168h0.1v-0.4h0.1c0.1-0.3-0.1-0.6-0.1-0.8v-0.4h-0.1V166h-0.1c0-0.3,0-0.5-0.1-0.8
				h-0.1c0-0.1,0-0.3-0.1-0.4c0.1,0,0.1,0,0.2-0.1v-0.1c0.1,0,0.3,0,0.4-0.1v0h0.1v-0.1H24c0,0,0-0.1,0.1-0.1h0.2v-0.1
				c0.1-0.1,0.2,0,0.4-0.1c0.1,0.1,0.1,0.1,0.1,0.3c-0.1,0.1-0.1,0.3-0.1,0.5h0.1v0.1h-0.1c0,0.1,0,0.3-0.1,0.4h-0.1v0.1h-0.1v0.5
				h-0.1v0.3h-0.1c0,0.1,0,0.2,0.1,0.3h0.1c0,0.3,0.1,0.7,0.1,1h-0.1v-0.1c-0.1,0-0.1,0.1-0.1,0.2h0.1v0.1
				C24.6,168.1,24.7,168.1,24.7,168.1 M11.7,166.7c0-0.1,0-0.1,0.1-0.2h0.1v-0.1h0.1v-0.3c-0.2,0-0.4,0-0.5-0.1c0,0,0,0.1-0.2,0.1
				v-0.1H11v0c-0.1-0.1-0.4-0.1-0.5-0.2v-0.2c0.2-0.1,0.5-0.1,0.7-0.2c0.1-0.1,0.1-0.2,0.2-0.3h0.1v-0.1c0.1,0,0.2-0.1,0.3-0.1v-0.1
				c0.4-0.1,0.6,0.2,1,0.2V165c0.1,0,0.2,0.1,0.2,0.1h0.3v0.1h0.2v0.1h0.1v0.1h0.2v0.1h0.3v0.1h0.2v0.1h0.1v0.1h0.2v0.1h0.1v0.1h0.1
				v0.1h0.1l0.1,0.1h0.1c0,0,0,0.1,0.1,0.1c0.1,0,0.1,0,0.2,0.1c0.1,0.1,0.1,0.1,0.2,0.2c0,0,0.1,0,0.1,0.1v0.1
				c0.1,0,0.1,0.1,0.2,0.1v0.2c0,0,0.1,0,0.1,0.1c0,0.1,0,0.2,0.1,0.3c-0.1,0.1-0.1,0.1-0.2,0.2h-0.1c-0.1,0.2,0,0.3-0.3,0.3v0.1
				c-0.3,0-0.6,0-0.9-0.1v-0.1h-0.1v-0.1h-0.2v-0.1h-0.2v-0.1H14c0-0.1-0.1-0.1-0.1-0.2h-0.1c-0.1-0.1-0.1-0.1-0.2-0.2h-0.1v-0.1H13
				v-0.1h-0.2v-0.1h-0.1v-0.1c-0.2-0.1-0.4,0.1-0.5,0.1H11.7z M25.5,172.6c0.2,0,0.5,0.1,0.7,0c0.1-0.1,0.1-0.2,0.2-0.3h0.1
				c0,0,0-0.1,0.1-0.1c0.1,0,0.1,0,0.2-0.1v-0.1c0.1-0.1,0.1-0.1,0.2-0.1v-0.1h0.1l0.3-0.4c0.1-0.2,0.2-0.9,0.1-1.1
				c0-0.1,0-0.1-0.1-0.2h-0.1c-0.1-0.1,0.1-0.1-0.2-0.2c-0.1-0.1-0.4,0-0.5-0.1V170h-0.3v-0.1H26v0.1c-0.4,0.1-1-0.2-1.2,0.2
				c-0.1,0.1-0.1,0.3-0.1,0.5h0.1v0.2h0.1c0,0.1,0,0-0.1,0.1c0,0.1,0,0.3,0.1,0.4c0.1,0.1,0.1,0.1,0.2,0.2v0.1c0,0,0.1,0,0.1,0.1
				v0.2h0.1v0.2h0.1v0.2c0,0,0.1,0,0.1,0.1c0,0.1,0,0.1,0.1,0.2h0.1C25.5,172.5,25.5,172.5,25.5,172.6 M22.7,175.5h0.1
				c0.1-0.3,0.3-0.3,0.3-0.7c-0.1,0-0.2-0.1-0.2-0.2c-0.4,0-0.7,0.1-1.1,0.1v0.1c-0.1,0-0.2,0-0.3,0.1c0,0,0,0.1-0.1,0.1H21
				c-0.1-0.1-0.2-0.3-0.2-0.5h0.1c0-0.1,0-0.1-0.1-0.2h0.1v-0.5h-0.1v-0.1h-0.1v-0.3c0.4-0.1,0.8-0.3,0.9-0.7h0.1
				c0,0,0.1-0.2,0.3-0.1v0.1c0.1,0,0.1,0,0.2,0.1c0,0,0,0.1,0.1,0.1c0.1,0.1,0.7,0.2,0.9,0.1c0.2-0.1,0.1-1,0.1-1.3
				c0.1-0.1,0-0.5,0-0.7c-0.1-0.1-0.1-0.1-0.3-0.1v0.1h-0.3v0.1c-0.1,0-0.1,0-0.2,0.1c0,0,0,0.1-0.1,0.1h-0.1c0,0,0,0.1-0.1,0.1
				c-0.2,0-0.5,0-0.7,0.1v0.1h-0.1v0.1h-0.1c0,0,0,0.1-0.1,0.1c-0.4,0-0.7,0-1.1,0.1c-0.1,0.1-0.1,0.2-0.2,0.3H20v0.2h-0.1v0.1h-0.1
				v0.2c0,0-0.1,0-0.1,0.1c0,0.1,0,0.2-0.1,0.3h-0.1v0.1h-0.1c0,0.1,0,0.2-0.1,0.3h-0.1c0,0.2,0,0.4-0.1,0.7h-0.1
				c0,0.2,0,0.4-0.1,0.5c0,0,0.1,0,0.1,0.1h-0.1v0.1l0.1,0.1h-0.1v1h0.1v0.2h0.1v0.1h0.1c0,0.1,0,0.2,0.1,0.3h0.1v0.1h0.1v0.2h0.1
				c0,0.1,0,0.1,0.1,0.2h0.1v0.2h0.1v0.1h0.1v0.1c0.1,0,0.1,0.1,0.2,0.1v0.1l0.1,0.1h0.1c0,0.1,0.1,0.1,0.1,0.2l0.4,0.3H21
				c0.1-0.1,0.3-0.2,0.4-0.3c0-0.1,0-0.1,0.1-0.2c0.1-0.1,0.1-0.1,0.2-0.2v-0.1c0.1,0,0.1-0.1,0.2-0.1v-0.1c0,0,0.1,0,0.1-0.1v-0.1
				H22v-0.1l0.1-0.1v-0.1c0,0,0.1,0,0.1-0.1V176c0,0,0.1,0,0.1-0.1C22.4,175.8,22.6,175.7,22.7,175.5 M24.9,172.2
				c0,0.1-0.1,0.3-0.1,0.5c0.1,0,0.1,0,0.2,0.1v0.1h0.2c0-0.1,0-0.2,0-0.3c-0.1-0.1-0.1-0.2-0.2-0.3H24.9z M25.5,174.7L25.5,174.7
				l-0.2,0.1c0,0,0,0.1,0,0.1h-0.1v0.1c-0.1,0.1-0.1-0.1-0.2,0.2h-0.1c-0.1,0.1,0,0.6,0,0.7c0,0,0.1,0,0.1,0.1h-0.1v0.4h-0.1
				c0,0.1,0,0.1-0.1,0.2h-0.1c-0.1,0.2,0.1,0.5,0.2,0.5h0.4V177c0.1,0,0.2,0,0.3-0.1c0,0,0-0.1,0.1-0.1c0.1,0,0.1,0,0.2-0.1v-0.1
				c0.1,0,0.1,0,0.2-0.1c0,0,0-0.1,0.1-0.1h0.1c0,0,0-0.1,0.1-0.1h0.1c0-0.1,0-0.2,0.1-0.3h-0.1V176h-0.1v-0.2h-0.1v-0.2h-0.1v-0.2
				h-0.1v-0.3h-0.1v-0.1H26v-0.2H26v-0.1c0,0-0.1,0-0.1-0.1H25.5z M22.7,177.4c0,0.1,0,0.1-0.1,0.2h-0.1v0.1c0,0-0.1,0-0.1,0.1v0.4
				c0.1,0.1,0.3,0.1,0.6,0.1v-0.1h0.2v-0.1h0.1c0-0.1,0.1-0.2,0.1-0.4c0.1-0.1,0-0.2-0.1-0.4c-0.1,0-0.1,0-0.3-0.1
				C22.9,177.3,22.8,177.3,22.7,177.4 M10,181.7L10,181.7l0.1-0.1H10V181.7z M22.7,192.2L22.7,192.2c0.1,0.1,0,0.3,0,0.4h-0.1v-0.2
				h0.1V192.2z M11.2,195.6c0.1-0.5,0.5-0.2,0.5-0.8c-0.1-0.1,0-0.1-0.1-0.2c-0.1-0.1-0.2-0.1-0.3-0.2v-0.1h-0.1c0,0,0-0.1-0.1-0.1
				h-0.1c0-0.1-0.1-0.1-0.1-0.2h-0.1c0,0,0-0.1-0.1-0.1h-0.1c-0.1-0.1-0.1-0.1-0.2-0.2h-0.1v-0.1c0,0-0.1,0-0.1-0.1v-0.2
				c0.1,0,0.1,0,0.2-0.1v-0.1h0.1v-0.1h0.2v-0.1H11v-0.1h0.5V193c0.1,0,0.2,0,0.3,0.1c0.1,0,0.1,0,0.2-0.1v0.1h0.2v0.1
				c0.1,0,0.1-0.1,0.1-0.1c0.1,0,0.2,0.1,0.3,0.1l0.1-0.1v0.1c0.1,0,0.3,0,0.4,0.1v0.1h0.1v0.1h0.2v0.1h0.1v0.1h0.2v0.1h0.1
				c0,0,0,0.1,0.1,0.1c0.1,0,0.2,0,0.3,0.1c0.6,0.3,1.3,0.7,1.3,1.6h-0.1v0.2h-0.1v0.1c-0.1,0-0.2,0.1-0.3,0.1v0.1
				c-0.2,0.1-1.1,0-1.2-0.1c0,0,0-0.1-0.1-0.1h-0.3v-0.1h-0.1v-0.1c-0.1,0-0.2-0.1-0.3-0.1v-0.1h-0.2v-0.1c-0.2,0-0.4,0.1-0.5,0.1
				c0,0,0,0.1-0.1,0.1h-0.1v0.1h-0.2v0.1h-0.1v0.1C11.6,195.5,11.4,195.5,11.2,195.6 M23.5,194.8c0,0.1,0.1,0.2,0.1,0.3h0.1v0.1h0.1
				c0,0.1,0,0.2,0.1,0.3c0,0,0.1,0,0.1,0.1v0.1h0.1c0,0.1-0.1,0.4-0.1,0.5v0.5c0,0.4,0.1,0.9,0.1,1.4c0,0.2-0.1,0.4-0.1,0.7h0.1v0.3
				c0,0,0,0,0.1,0.1c0.1,0.1,0.2,0.1,0.4,0.2v0.1c0.1,0,0.3,0,0.4,0.1v0.1h0.5v0.1h0.3v0.1h0.3v0.1h0.3v0.1c0.2,0.1,0.3,0.1,0.4,0.2
				v0.5c0.2,0.1,0.2,0.2,0.3,0.3c0.1,0,0.1,0.1,0.2,0.1v0.5c-0.1,0.1,0,0-0.1,0.1c-0.2,0-0.2,0.1-0.4,0.2c-0.1,0-0.3,0-0.4,0.1v0.1
				c-0.1,0-0.1,0-0.2,0.1v0.1h-0.2v0.1h-0.2v0.1h-0.2v0.1c-0.1,0-0.3,0-0.4,0.1c0,0,0,0.1-0.1,0.1c-0.1,0-0.3,0-0.4,0.1
				c-0.2,0.1-0.7,0.3-0.8,0.6c-0.1,0.1-0.2,1.1-0.2,1.3h0.1v0.3h-0.1v0.2h-0.1v0.2h-0.1v1.1h-0.1c0,0.1-0.1,0.2-0.1,0.3h-0.1
				c0,0.1,0,0.2-0.1,0.3c-0.1,0.1-0.2,0.1-0.3,0.2v0.1H23v0.2h-0.1v0.2h-0.1v0.2h-0.1v0.2c-0.1,0-0.1,0-0.2,0.1v0.1
				c-0.1,0-0.2,0-0.3,0.1v0.1c-0.2,0-0.4,0-0.7-0.1c0-0.1-0.1-0.1-0.1-0.2c-0.1,0-0.2,0-0.3-0.1v-0.1c-0.3-0.1-0.7,0.1-0.9,0.1
				c-0.2,0.3-0.6,0.2-0.7,0.7c0.1,0,0.2,0,0.3,0.1v0.1h0.1v0.1h0.4v0.1c0.2,0,0.5-0.1,0.5-0.1v0.1h0.7v-0.1h0.3v-0.1
				c0.1,0,0.1,0.1,0.3,0.1v-0.1c0.1,0,0.2,0,0.3,0.1v-0.1h0.4v-0.1h0.4v-0.1c0.5,0,1.1-0.1,1.6-0.1c0,0,0-0.1,0.1-0.1
				c0.1,0,0.1-0.1,0.2-0.1v-0.1h0.1v-0.3h0.1c0-0.1,0-0.3,0.1-0.4h0.1v0.1c0.2,0.2,0.1,0.6,0.3,0.7v0.1c0.1,0,0.2,0,0.3,0.1v0.1
				c0.1,0,0.1,0,0.2,0.1v0.1h0.2v0.1h0.1v0.1h0.1c0,0,0,0.1,0.1,0.1c0.1,0,0.1,0,0.2,0.1v0.1h0.3l0.6,0.2c0,0.1,0.1,0.1,0.1,0.2h0.1
				v0.1h0.1v0.1c0,0,0.1,0,0.1,0.1v0.1c0.1,0.1,0.1,0.1,0.2,0.2v0.1h0.1v0.2h0.1c0,0.1,0,0.2,0.1,0.3h0.1c0,0-0.1,0.6-0.1,0.6
				c0,0.1,0,0.1-0.1,0.2c-0.2,0.2-1.6,0.3-1.9,0.2h-0.5v-0.1c-0.3,0-0.5,0-0.8-0.1v0.1c-0.3,0-0.7,0-1,0.1v0.1h-1v0.1
				c-0.4,0-0.8,0-1.2-0.1v0.1c-0.1,0-0.2,0-0.3-0.1v0.1h-0.3v0.1h-0.1v-0.1h-0.3v-0.1h-0.2v0.1c-0.1,0-0.1-0.1-0.1-0.1h-0.1v0.1
				c-0.3,0-0.5,0-0.8,0.1v0.1h-0.2v0.1c-0.1,0-0.1,0-0.1-0.1h-0.7v-0.1h-0.5v-0.1c-0.1,0-0.1,0-0.2-0.1c0,0,0-0.1-0.1-0.1
				c-0.1,0-0.2,0-0.3-0.1c-0.1-0.1-0.3-0.2-0.4-0.3v-0.1h-0.1v-0.1h-0.1v-0.2c0,0-0.1-0.1-0.2-0.1v-0.1h-0.1c0-0.1,0-0.1-0.1-0.2
				h-0.1c-0.1-0.3,0.1-0.6,0.1-1c0.2-0.2,0.5-0.3,0.7-0.5v-0.1h0.1v-0.1h0.1c0,0,0-0.1-0.1-0.1h0.1c0.1-0.3,0.1-0.4,0.4-0.4
				c0,0,0.6,0.2,0.8,0.1v-0.1c0.2-0.1,0.2-0.2,0.3-0.3c0.1,0,0.1,0,0.2-0.1c0-0.1,0.1-0.1,0.1-0.2h0.1v-0.1H20V207h0.2V207h0.2v-0.1
				h0.1c0-0.1,0.1-0.1,0.1-0.2h0.1v-0.1c0,0,0.1,0,0.1-0.1c0-0.1,0-0.2,0.1-0.3h0.1l0.1-0.3h0.1v-0.3H21v-0.5H21V205h0.1
				c0-0.5,0.1-0.9,0.1-1.4c0,0-0.1-0.1-0.1-0.1h-0.8c-0.1,0.1-0.3,0.1-0.4,0.1c-0.3,0.1-0.8,0.3-1.3,0.2v-0.1
				c-0.1,0-0.2,0.1-0.2,0.1c-0.2,0-0.4,0-0.6-0.1v-0.1h-0.1c-0.1-0.1-0.2-0.2-0.4-0.2v-0.1c-0.2,0-0.3-0.2-0.4-0.3V203h-0.1
				c0-0.1-0.1-0.1-0.1-0.2h-0.1l-0.1-0.1v-0.1c-0.1-0.1-0.1-0.1-0.2-0.2v-0.2h0.1v-0.1c0.4,0,0.8-0.1,1.1-0.1v-0.1h0.2v-0.1
				c0.1,0,0.1,0,0.2-0.1v-0.1c0.1,0,0.2,0,0.3-0.1v-0.1h0.2v-0.1h0.2v-0.1h0.1v-0.1h0.2v-0.1h0.2c0,0,0-0.1,0.1-0.1
				c0.1,0,0.1,0,0.2-0.1v-0.1c0.1,0,0.2-0.1,0.3-0.1v-0.1h0.2v-0.1H20v-0.1h0.2v-0.1h0.1v0h0.2V201c0.4-0.1,0.8-0.1,0.9-0.5
				c0.2-0.2,0-0.3,0.1-0.6c0.1-0.3,0-0.9,0.1-1.3h0.1c0-0.1,0,0-0.1-0.1c0-0.1,0.1-0.2,0.1-0.2c0-0.1-0.1-0.1-0.1-0.1
				c0-0.1,0.1-0.1,0.1-0.2h-0.1v-0.8h-0.1v-0.1h-0.1c0-0.2-0.1-0.4-0.1-0.5h-0.1c0-0.1,0-0.1-0.1-0.2h-0.1c-0.1-0.2,0.1-0.8,0.1-1
				h0.1v-0.1h0.1c0.1-0.2,0-0.5,0-0.7c0.2-0.1,0.3-0.1,0.7-0.1v0.1h0.2c0.1,0.1,0.1,0.1,0.2,0.2h0.1v0.1c0.1,0.1,0.3,0,0.4-0.1
				C23.1,194.8,23.3,194.8,23.5,194.8 M14.7,203.6c0,0.3-0.1,0.6,0,0.8h0.1v0.1c0.1,0.1,0.1,0.1,0.2,0.2c0,0.1,0,0.2,0.1,0.3h0.1
				l-0.1,0.1c0,0.1,0,0.1,0.1,0.2H15c-0.1,0.3,0,0.1-0.2,0.2c0,0.1-0.1,0.1-0.1,0.2c-0.1,0.1-0.1,0-0.2,0.1c-0.1,0-0.2,0-0.3-0.1
				v-0.1h-0.4v-0.1h-0.2c0,0,0-0.1-0.1-0.1h-0.4v-0.1H13v-0.1c-0.2,0-0.3,0-0.5,0.1c0,0,0,0.1-0.1,0.1c0,0.1-0.2,0.4-0.2,0.5h0.1
				v0.2c0,0.1-0.1,0.3-0.1,0.5h0.1v0.3h-0.1c0,0.1,0,0.2,0.1,0.3h-0.1v0.4h-0.1c-0.1,0.2,0,0.3-0.1,0.4c0,0.1,0,0.1,0.1,0.2h-0.1
				v1.7c-0.1,0.2-0.2,0.5-0.1,0.8c0,0.1,0.1,0.1,0.1,0.2h-0.1c0,0.1,0,0.1,0.1,0.2h-0.1v0.3H12v0.5H12v0.4h-0.1c0,0.1,0,0.2-0.1,0.3
				c-0.1,0.1-0.1,0.1-0.3,0.1v-0.1h-0.4c-0.1-0.2-0.2-0.3-0.3-0.5h-0.1c0-0.1,0-0.1-0.1-0.2h-0.1c-0.2-0.2-0.3-0.4-0.5-0.5h-0.1
				v-0.8c-0.1-0.1-0.1-0.6-0.1-0.8h0.1v-0.3h0.1c0.1-0.4-0.1-0.7,0-1.1h0.1V208c0.1-0.4,0.2-0.9,0.2-1.4c-0.1-0.1-0.1-0.1-0.3-0.2
				c-0.1,0.1-0.1,0.2-0.2,0.3c-0.1,0-0.1,0.1-0.2,0.1c0,0.1-0.1,0.2-0.1,0.3c-0.1,0.1-0.3,0.2-0.4,0.3v0.1c0,0-0.1,0-0.1,0.1v0.1
				c-0.1,0.1-0.2,0.1-0.2,0.2c0,0.1,0,0.1-0.1,0.2c0,0-0.1,0-0.1,0.1v0.1c0,0-0.1,0-0.1,0.1v0.1c-0.1,0-0.1,0-0.2,0.1
				c-0.1,0.1-0.1,0.1-0.2,0.2c-0.1,0-0.1,0-0.2,0.1c0,0.1,0,0.1-0.1,0.2H7.9v0.1H7.9c-0.1,0.1-0.1,0.1-0.2,0.2H7.6
				c-0.1,0.1-0.1,0.2-0.2,0.3H7.3v0.1H7v0.1H6.8v0.1H6.7v0.1H6.5v0.1H5.8v0.1H5.7v0.1H5.4v0.1c-0.1,0-0.1,0-0.2,0.1
				c0,0.1-0.1,0.1-0.1,0.2c-0.2,0.1-0.3,0.1-0.5,0.2c0,0,0,0.1-0.1,0.1c-0.1,0.1-0.2,0.1-0.4,0.2c-0.1-0.1-0.2-0.1-0.3-0.2
				c0-0.2-0.1-0.3-0.2-0.6c0.1,0,0.2,0,0.3-0.1v0.1c0.1,0,0.3,0,0.4-0.1v-0.1h0.3v-0.1h0.1v-0.1c0.1,0,0.2,0,0.3-0.1
				c0,0,0-0.1,0.1-0.1c0.1,0,0.1,0,0.2-0.1c0-0.1,0.1-0.1,0.1-0.2h0.1c0-0.1,0.1-0.1,0.1-0.2c0.1-0.1,0.2-0.1,0.4-0.2
				c0-0.1,0-0.1,0.1-0.2h0.1v-0.1h0.1c0.1-0.1,0-0.1,0.2-0.1c0-0.2,0.3-0.4,0.4-0.5c0,0,0.1,0,0.1-0.1v-0.1c0.1,0,0.1-0.1,0.2-0.1
				c0-0.1,0-0.1,0.1-0.2c0,0,0.1,0,0.1-0.1v-0.1c0.1,0,0.1-0.1,0.2-0.1v-0.1c0.1,0,0.1-0.1,0.2-0.1v-0.1c0,0,0.1,0,0.1-0.1v-0.1
				c0.1-0.1,0.1-0.1,0.2-0.2v-0.1c0,0,0.1,0,0.1-0.1v-0.1c0.1,0,0.1-0.1,0.2-0.1c0-0.1,0-0.1,0.1-0.2c0.1,0,0.1-0.1,0.2-0.1v-0.1
				c0.1-0.1,0.1-0.1,0.2-0.2v-0.1c0.1,0,0.1-0.1,0.2-0.1v-0.1h0.1v-0.1h0.1v-0.2h0.1v-0.1c0.1-0.1,0.1-0.1,0.2-0.2
				c0-0.1,0-0.1,0.1-0.2c0,0,0.1,0,0.1-0.1v-0.1h0.1v-0.1h0.1V204c0.1,0,0.1-0.1,0.2-0.1c0.1-0.2,0.1-0.3,0.2-0.5c0,0,0.1,0,0.1-0.1
				c0-0.1,0-0.1,0.1-0.2c0.1-0.2,0.2-0.2,0.2-0.5h-0.1v-0.1H10c-0.1-0.1-0.1-0.1-0.1-0.3c0.2,0,0.4,0,0.5-0.1
				c0.1-0.1,0.1-0.1,0.1-0.2c0,0,0.1,0,0.1-0.1v-0.3c-0.1-0.1-0.1-0.1-0.2-0.2c-0.2,0.1-0.4,0.1-0.7,0.1c-0.2,0.3-0.5,0.5-0.7,0.8
				c-0.1,0-0.2,0-0.3,0.1v0.1H8.7c0,0,0,0.1-0.1,0.1H8.5v0.1c-0.1,0-0.2,0-0.3,0.1c-0.1,0.1-0.1,0.1-0.2,0.2H7.9v0.1
				c-0.1,0-0.1,0-0.2,0.1v0.1H7.5v0.1H7.4c0,0,0,0.1-0.1,0.1c-0.3,0.1-0.5,0.2-0.8,0.3v-0.1c-0.4-0.1-0.9,0.1-1,0
				c-0.1-0.1,0,0-0.1-0.2H5.3v-0.1c0,0-0.1,0-0.1-0.1c0-0.1,0-0.2-0.1-0.3H5.1v-0.1H5.1v-0.2H5v-0.1H4.9v-0.2H4.9
				c0-0.1,0-0.1-0.1-0.2H4.8v-0.2H4.7c-0.1-0.3,0.2-0.6,0.2-0.8v-0.3H5c0-0.1,0-0.1,0.1-0.2c0.1-0.1,0.1-0.1,0.2-0.2v-0.1
				c0.1-0.1,0.2-0.2,0.3-0.3v-0.1c0,0,0.1,0,0.1-0.1v-0.1c0.1,0,0.1-0.1,0.2-0.1v-0.1c0,0,0.1,0,0.1-0.1c0-0.1,0-0.1,0.1-0.2h0.2
				c0,0.1,0,0.2-0.1,0.3c0,0-0.1,0-0.1,0.1v0.2H6c0,0.1,0,0.1-0.1,0.2H5.9c0,0.3-0.1,0.5-0.1,0.8C6,200.9,6,201,6.4,201v-0.1
				c0.1,0,0.2,0,0.3-0.1v-0.1h0.1v-0.1H7v-0.1h0.2v-0.1h0.1v0c0.1,0,0.1,0,0.2-0.1v-0.1c0.2,0,0.3-0.1,0.5-0.1v-0.1h0.1v-0.1
				c0.1,0,0.2,0,0.3-0.1c0,0,0-0.1,0.1-0.1c0.1,0,0.2,0,0.3-0.1V200h0.1c0,0,0-0.1,0.1-0.1c0.1,0,0.2,0,0.3-0.1
				c0.1-0.1,0.1-0.1,0.2-0.2h0.1v-0.1c0.1,0,0.2,0,0.3-0.1v-0.1c0.1,0,0.1,0,0.2-0.1v-0.1h0.1v-0.1c0.1,0,0.2,0,0.3-0.1v-0.1h0.1
				v-0.1h0.2c0,0,0-0.1,0.1-0.1h0.1v-0.1c0.1,0,0.1,0,0.2-0.1v-0.1h0.2v-0.1h0.1c0,0,0-0.1,0.1-0.1h0.1c0,0,0-0.1,0.1-0.1h0.1
				c0.1-0.1,0.3-0.2,0.4-0.3v-0.2h0.1V198c0.1,0,0.1-0.1,0.2-0.1v-0.1h0.2v-0.1c0.2,0.1,0.3,0.1,0.5,0.2v0.1h0.3
				c0.3,0.1,0.8,0.3,1.1,0.3c0.1,0.2,0.3,0.2,0.3,0.5c-0.1,0-0.1,0-0.2,0.1v0.1h-0.1v0.1h-0.1c0,0,0,0.1-0.1,0.1h-0.1v0.1h-0.1v0.1
				H14v0.1h-0.2c0,0,0,0.1-0.1,0.1h-0.1v0.1c-0.1,0.1-0.1,0.1-0.2,0.2c0,0.1,0,0.1-0.1,0.2h-0.1c0,0.1-0.1,0.2-0.1,0.3h-0.1v0.2
				h-0.1c0,0.1,0,0.1-0.1,0.2H13v0.2h-0.1v0.3h-0.1v0.1h-0.1v0.1c0,0-0.1,0-0.1,0.1v0.2h-0.1c0,0.2-0.1,0.3-0.1,0.5
				c0,0-0.1,0-0.1,0.1c0,0.2-0.1,0.3-0.1,0.5h-0.1c-0.1,0.2-0.1,0.4-0.2,0.7h0.1c0.1,0.2,0.1,0.2,0.3,0.3v0.1h0.2v0.1h0.1v0.1H13
				v0.1h0.3v0.1h0.2v0.1h0.2v0.1h0.1v0.1h0.1c0,0.1,0.1,0.1,0.1,0.2h0.3V204h0.2C14.5,203.9,14.4,203.7,14.7,203.6 M31.3,203.9v0.1
				c0.1,0.1,0.1,0.1,0.2,0.2v0.1h0.2c0.1,0.1,0.2,0.3,0.3,0.4h0.1c0.1,0.1,0.3,0.3,0.4,0.4c0.1,0.3-0.2,0.4-0.2,0.5v0.4h-0.1
				c-0.1,0.1-0.1,0-0.3,0.1v0.1c-0.3,0.1-0.5,0.2-0.9,0.2c-0.2-0.3-0.4-0.5-0.6-0.7l-0.1-0.1c-0.1,0-0.3,0-0.4-0.1v-0.1
				c-0.2-0.2-0.1-0.2-0.2-0.4c-0.1-0.3-0.4-0.3-0.4-0.7c-0.3-0.1-0.4-0.3-0.4-0.7c0.2-0.2,0.1-0.6,0.1-0.8c0.1-0.1,0.2-0.1,0.4-0.1
				c0.2,0.4,0.7,0.5,1,0.7c0,0,0,0.1,0.1,0.1h0.1c0,0,0,0.1,0.1,0.1h0.1c0,0,0,0.1,0.1,0.1H31v0.1h0.1v0.1
				C31.1,203.9,31.2,203.9,31.3,203.9"/>
		</g>
	</g>
</g>
</svg>
